{
    "asset" : {
        "generator" : "Khronos glTF Blender I/O v3.4.50",
        "version" : "2.0"
    },
    "scene" : 0,
    "scenes" : [
        {
            "name" : "Scene",
            "nodes" : [
                0
            ]
        }
    ],
    "nodes" : [
        {
            "mesh" : 0,
            "name" : "ratchet_wrench"
        }
    ],
    "materials" : [
        {
            "doubleSided" : true,
            "name" : "ratchet_wrench",
            "normalTexture" : {
                "index" : 0
            },
            "pbrMetallicRoughness" : {
                "baseColorTexture" : {
                    "index" : 1
                },
                "metallicRoughnessTexture" : {
                    "index" : 2
                }
            }
        }
    ],
    "meshes" : [
        {
            "name" : "Cube.011",
            "primitives" : [
                {
                    "attributes" : {
                        "POSITION" : 0,
                        "TEXCOORD_0" : 1,
                        "NORMAL" : 2
                    },
                    "indices" : 3,
                    "material" : 0
                }
            ]
        }
    ],
    "textures" : [
        {
            "sampler" : 0,
            "source" : 0
        },
        {
            "sampler" : 0,
            "source" : 1
        },
        {
            "sampler" : 0,
            "source" : 2
        }
    ],
    "images" : [
        {
            "mimeType" : "image/jpeg",
            "name" : "ratchet_wrench_nor_gl",
            "uri" : "ratchet_wrench_nor_gl.jpg"
        },
        {
            "mimeType" : "image/jpeg",
            "name" : "ratchet_wrench_diff_1k",
            "uri" : "ratchet_wrench_diff_1k.jpg"
        },
        {
            "mimeType" : "image/jpeg",
            "name" : "ratchet_wrench_metal-ratchet_wrench_rough",
            "uri" : "ratchet_wrench_metal-ratchet_wrench_rough.jpg"
        }
    ],
    "accessors" : [
        {
            "bufferView" : 0,
            "componentType" : 5126,
            "count" : 1361,
            "max" : [
                0.029460255056619644,
                0.1247463971376419,
                0.020589323714375496
            ],
            "min" : [
                -0.014507914893329144,
                -0.1195068210363388,
                -0.020589319989085197
            ],
            "type" : "VEC3"
        },
        {
            "bufferView" : 1,
            "componentType" : 5126,
            "count" : 1361,
            "type" : "VEC2"
        },
        {
            "bufferView" : 2,
            "componentType" : 5126,
            "count" : 1361,
            "type" : "VEC3"
        },
        {
            "bufferView" : 3,
            "componentType" : 5123,
            "count" : 5394,
            "type" : "SCALAR"
        }
    ],
    "bufferViews" : [
        {
            "buffer" : 0,
            "byteLength" : 16332,
            "byteOffset" : 0,
            "target" : 34962
        },
        {
            "buffer" : 0,
            "byteLength" : 10888,
            "byteOffset" : 16332,
            "target" : 34962
        },
        {
            "buffer" : 0,
            "byteLength" : 16332,
            "byteOffset" : 27220,
            "target" : 34962
        },
        {
            "buffer" : 0,
            "byteLength" : 10788,
            "byteOffset" : 43552,
            "target" : 34963
        }
    ],
    "samplers" : [
        {
            "magFilter" : 9729,
            "minFilter" : 9987
        }
    ],
    "buffers" : [
        {
            "byteLength" : 54340,
            "uri" : "model.bin"
        }
    ]
}
