{
  "asset": {
    "generator": "Khronos glTF Blender I/O v1.6.16",
    "version": "2.0"
  },
  "scene": 0,
  "scenes": [
    {
      "name": "Scene",
      "nodes": [
        0
      ]
    }
  ],
  "nodes": [
    {
      "mesh": 0,
      "name": "sphere_gltf"
    }
  ],
  "materials": [
    {
      "doubleSided": true,
      "name": "concrete_floor_worn_001",
      "normalTexture": {
        "index": 0
      },
      "pbrMetallicRoughness": {
        "baseColorTexture": {
          "index": 1
        },
        "metallicFactor": 0,
        "metallicRoughnessTexture": {
          "index": 2
        }
      }
    }
  ],
  "meshes": [
    {
      "name": "Sphere.001",
      "primitives": [
        {
          "attributes": {
            "POSITION": 0,
            "NORMAL": 1,
            "TEXCOORD_0": 2
          },
          "indices": 3,
          "material": 0
        }
      ]
    }
  ],
  "textures": [
    {
      "sampler": 0,
      "source": 0
    },
    {
      "sampler": 0,
      "source": 1
    },
    {
      "sampler": 0,
      "source": 2
    }
  ],
  "images": [
    {
      "mimeType": "image/jpeg",
      "name": "concrete_floor_worn_001_nor_gl_16k",
      "uri": "textures/concrete_floor_worn_001_nor_gl_1k.jpg"
    },
    {
      "mimeType": "image/jpeg",
      "name": "concrete_floor_worn_001_diff_16k",
      "uri": "textures/concrete_floor_worn_001_diff_1k.jpg"
    },
    {
      "mimeType": "image/jpeg",
      "name": "concrete_floor_worn_001_rough_16k",
      "uri": "textures/concrete_floor_worn_001_rough_1k.jpg"
    }
  ],
  "accessors": [
    {
      "bufferView": 0,
      "componentType": 5126,
      "count": 53943,
      "max": [
        1.5013880729675293,
        1.5004525184631348,
        1.5002408027648926
      ],
      "min": [
        -1.5013635158538818,
        -1.5008857250213623,
        -1.5002429485321045
      ],
      "type": "VEC3"
    },
    {
      "bufferView": 1,
      "componentType": 5126,
      "count": 53943,
      "type": "VEC3"
    },
    {
      "bufferView": 2,
      "componentType": 5126,
      "count": 53943,
      "type": "VEC2"
    },
    {
      "bufferView": 3,
      "componentType": 5123,
      "count": 322170,
      "type": "SCALAR"
    }
  ],
  "bufferViews": [
    {
      "buffer": 0,
      "byteLength": 647316,
      "byteOffset": 0
    },
    {
      "buffer": 0,
      "byteLength": 647316,
      "byteOffset": 647316
    },
    {
      "buffer": 0,
      "byteLength": 431544,
      "byteOffset": 1294632
    },
    {
      "buffer": 0,
      "byteLength": 644340,
      "byteOffset": 1726176
    }
  ],
  "samplers": [
    {
      "magFilter": 9729,
      "minFilter": 9987
    }
  ],
  "buffers": [
    {
      "byteLength": 2370516,
      "uri": "concrete_floor_worn_001.bin"
    }
  ]
}