{
    "asset" : {
        "generator" : "Khronos glTF Blender I/O v3.4.50",
        "version" : "2.0"
    },
    "scene" : 0,
    "scenes" : [
        {
            "name" : "Scene",
            "nodes" : [
                0
            ]
        }
    ],
    "nodes" : [
        {
            "mesh" : 0,
            "name" : "standing_chalkboard_01"
        }
    ],
    "materials" : [
        {
            "doubleSided" : true,
            "name" : "standing_chalkboard_01_frame",
            "normalTexture" : {
                "index" : 0
            },
            "pbrMetallicRoughness" : {
                "baseColorTexture" : {
                    "index" : 1
                },
                "metallicRoughnessTexture" : {
                    "index" : 2
                }
            }
        },
        {
            "doubleSided" : true,
            "name" : "standing_chalkboard_01_board",
            "normalTexture" : {
                "index" : 3
            },
            "pbrMetallicRoughness" : {
                "baseColorTexture" : {
                    "index" : 4
                },
                "metallicRoughnessTexture" : {
                    "index" : 5
                }
            }
        }
    ],
    "meshes" : [
        {
            "name" : "Cube.012",
            "primitives" : [
                {
                    "attributes" : {
                        "POSITION" : 0,
                        "TEXCOORD_0" : 1,
                        "NORMAL" : 2
                    },
                    "indices" : 3,
                    "material" : 0
                },
                {
                    "attributes" : {
                        "POSITION" : 4,
                        "TEXCOORD_0" : 5,
                        "NORMAL" : 6
                    },
                    "indices" : 7,
                    "material" : 1
                }
            ]
        }
    ],
    "textures" : [
        {
            "sampler" : 0,
            "source" : 0
        },
        {
            "sampler" : 0,
            "source" : 1
        },
        {
            "sampler" : 0,
            "source" : 2
        },
        {
            "sampler" : 0,
            "source" : 3
        },
        {
            "sampler" : 0,
            "source" : 4
        },
        {
            "sampler" : 0,
            "source" : 5
        }
    ],
    "images" : [
        {
            "mimeType" : "image/jpeg",
            "name" : "standing_chalkboard_01_frame_nor_gl_1k",
            "uri" : "standing_chalkboard_01_frame_nor_gl_1k.jpg"
        },
        {
            "mimeType" : "image/jpeg",
            "name" : "standing_chalkboard_01_frame_diff_1k",
            "uri" : "standing_chalkboard_01_frame_diff_1k.jpg"
        },
        {
            "mimeType" : "image/jpeg",
            "name" : "standing_chalkboard_01_frame_metal-standing_chalkboard_01_frame_rough",
            "uri" : "standing_chalkboard_01_frame_metal-standing_chalkboard_01_frame_rough.jpg"
        },
        {
            "mimeType" : "image/jpeg",
            "name" : "standing_chalkboard_01_board_nor_gl_1k",
            "uri" : "standing_chalkboard_01_board_nor_gl_1k.jpg"
        },
        {
            "mimeType" : "image/jpeg",
            "name" : "standing_chalkboard_01_board_diff_1k",
            "uri" : "standing_chalkboard_01_board_diff_1k.jpg"
        },
        {
            "mimeType" : "image/jpeg",
            "name" : "standing_chalkboard_01_board_metal-standing_chalkboard_01_board_rough",
            "uri" : "standing_chalkboard_01_board_metal-standing_chalkboard_01_board_rough.jpg"
        }
    ],
    "accessors" : [
        {
            "bufferView" : 0,
            "componentType" : 5126,
            "count" : 1936,
            "max" : [
                0.47335898876190186,
                1.5090322494506836,
                0.3793523609638214
            ],
            "min" : [
                -0.4461677670478821,
                -1.5056824054227036e-07,
                -0.37935230135917664
            ],
            "type" : "VEC3"
        },
        {
            "bufferView" : 1,
            "componentType" : 5126,
            "count" : 1936,
            "type" : "VEC2"
        },
        {
            "bufferView" : 2,
            "componentType" : 5126,
            "count" : 1936,
            "type" : "VEC3"
        },
        {
            "bufferView" : 3,
            "componentType" : 5123,
            "count" : 4884,
            "type" : "SCALAR"
        },
        {
            "bufferView" : 4,
            "componentType" : 5126,
            "count" : 16,
            "max" : [
                0.39819028973579407,
                1.4356701374053955,
                0.2981609106063843
            ],
            "min" : [
                -0.3709985911846161,
                0.3187817633152008,
                -0.2981610894203186
            ],
            "type" : "VEC3"
        },
        {
            "bufferView" : 5,
            "componentType" : 5126,
            "count" : 16,
            "type" : "VEC2"
        },
        {
            "bufferView" : 6,
            "componentType" : 5126,
            "count" : 16,
            "type" : "VEC3"
        },
        {
            "bufferView" : 7,
            "componentType" : 5123,
            "count" : 24,
            "type" : "SCALAR"
        }
    ],
    "bufferViews" : [
        {
            "buffer" : 0,
            "byteLength" : 23232,
            "byteOffset" : 0,
            "target" : 34962
        },
        {
            "buffer" : 0,
            "byteLength" : 15488,
            "byteOffset" : 23232,
            "target" : 34962
        },
        {
            "buffer" : 0,
            "byteLength" : 23232,
            "byteOffset" : 38720,
            "target" : 34962
        },
        {
            "buffer" : 0,
            "byteLength" : 9768,
            "byteOffset" : 61952,
            "target" : 34963
        },
        {
            "buffer" : 0,
            "byteLength" : 192,
            "byteOffset" : 71720,
            "target" : 34962
        },
        {
            "buffer" : 0,
            "byteLength" : 128,
            "byteOffset" : 71912,
            "target" : 34962
        },
        {
            "buffer" : 0,
            "byteLength" : 192,
            "byteOffset" : 72040,
            "target" : 34962
        },
        {
            "buffer" : 0,
            "byteLength" : 48,
            "byteOffset" : 72232,
            "target" : 34963
        }
    ],
    "samplers" : [
        {
            "magFilter" : 9729,
            "minFilter" : 9987
        }
    ],
    "buffers" : [
        {
            "byteLength" : 72280,
            "uri" : "model.bin"
        }
    ]
}
