{
    "asset" : {
        "generator" : "Khronos glTF Blender I/O v3.4.50",
        "version" : "2.0"
    },
    "scene" : 0,
    "scenes" : [
        {
            "name" : "Scene",
            "nodes" : [
                0
            ]
        }
    ],
    "nodes" : [
        {
            "mesh" : 0,
            "name" : "barrel_03"
        }
    ],
    "materials" : [
        {
            "doubleSided" : true,
            "name" : "barrel_03",
            "normalTexture" : {
                "index" : 0
            },
            "pbrMetallicRoughness" : {
                "baseColorTexture" : {
                    "index" : 1
                },
                "metallicRoughnessTexture" : {
                    "index" : 2
                }
            }
        }
    ],
    "meshes" : [
        {
            "name" : "Circle.002",
            "primitives" : [
                {
                    "attributes" : {
                        "POSITION" : 0,
                        "TEXCOORD_0" : 1,
                        "NORMAL" : 2
                    },
                    "indices" : 3,
                    "material" : 0
                }
            ]
        }
    ],
    "textures" : [
        {
            "sampler" : 0,
            "source" : 0
        },
        {
            "sampler" : 0,
            "source" : 1
        },
        {
            "sampler" : 0,
            "source" : 2
        }
    ],
    "images" : [
        {
            "mimeType" : "image/jpeg",
            "name" : "barrel_03_nor_gl",
            "uri" : "barrel_03_nor_gl.jpg"
        },
        {
            "mimeType" : "image/jpeg",
            "name" : "barrel_03_diff_1k",
            "uri" : "barrel_03_diff_1k.jpg"
        },
        {
            "mimeType" : "image/jpeg",
            "name" : "barrel_03_metal-barrel_03_rough",
            "uri" : "barrel_03_metal-barrel_03_rough.jpg"
        }
    ],
    "accessors" : [
        {
            "bufferView" : 0,
            "componentType" : 5126,
            "count" : 785,
            "max" : [
                0.3169717788696289,
                0.9304735064506531,
                0.3193000555038452
            ],
            "min" : [
                -0.31697171926498413,
                -1.0636736647029466e-07,
                -0.31929945945739746
            ],
            "type" : "VEC3"
        },
        {
            "bufferView" : 1,
            "componentType" : 5126,
            "count" : 785,
            "type" : "VEC2"
        },
        {
            "bufferView" : 2,
            "componentType" : 5126,
            "count" : 785,
            "type" : "VEC3"
        },
        {
            "bufferView" : 3,
            "componentType" : 5123,
            "count" : 3027,
            "type" : "SCALAR"
        }
    ],
    "bufferViews" : [
        {
            "buffer" : 0,
            "byteLength" : 9420,
            "byteOffset" : 0,
            "target" : 34962
        },
        {
            "buffer" : 0,
            "byteLength" : 6280,
            "byteOffset" : 9420,
            "target" : 34962
        },
        {
            "buffer" : 0,
            "byteLength" : 9420,
            "byteOffset" : 15700,
            "target" : 34962
        },
        {
            "buffer" : 0,
            "byteLength" : 6054,
            "byteOffset" : 25120,
            "target" : 34963
        }
    ],
    "samplers" : [
        {
            "magFilter" : 9729,
            "minFilter" : 9987
        }
    ],
    "buffers" : [
        {
            "byteLength" : 31176,
            "uri" : "model.bin"
        }
    ]
}
