{
    "asset" : {
        "generator" : "Khronos glTF Blender I/O v3.4.50",
        "version" : "2.0"
    },
    "scene" : 0,
    "scenes" : [
        {
            "name" : "Scene",
            "nodes" : [
                0
            ]
        }
    ],
    "nodes" : [
        {
            "mesh" : 0,
            "name" : "Ukulele_01"
        }
    ],
    "materials" : [
        {
            "doubleSided" : true,
            "name" : "Ukulele_01",
            "normalTexture" : {
                "index" : 0
            },
            "pbrMetallicRoughness" : {
                "baseColorTexture" : {
                    "index" : 1
                },
                "metallicRoughnessTexture" : {
                    "index" : 2
                }
            }
        }
    ],
    "meshes" : [
        {
            "name" : "Circle.015",
            "primitives" : [
                {
                    "attributes" : {
                        "POSITION" : 0,
                        "TEXCOORD_0" : 1,
                        "NORMAL" : 2
                    },
                    "indices" : 3,
                    "material" : 0
                }
            ]
        }
    ],
    "textures" : [
        {
            "sampler" : 0,
            "source" : 0
        },
        {
            "sampler" : 0,
            "source" : 1
        },
        {
            "sampler" : 0,
            "source" : 2
        }
    ],
    "images" : [
        {
            "mimeType" : "image/jpeg",
            "name" : "Ukulele_01_nor_gl",
            "uri" : "Ukulele_01_nor_gl.jpg"
        },
        {
            "mimeType" : "image/jpeg",
            "name" : "Ukulele_01_diff_1k",
            "uri" : "Ukulele_01_diff_1k.jpg"
        },
        {
            "mimeType" : "image/jpeg",
            "name" : "Ukulele_01_metallic-Ukulele_01_roughness",
            "uri" : "Ukulele_01_metallic-Ukulele_01_roughness.jpg"
        }
    ],
    "accessors" : [
        {
            "bufferView" : 0,
            "componentType" : 5126,
            "count" : 6808,
            "max" : [
                0.08893056213855743,
                0.5270119309425354,
                0.028751812875270844
            ],
            "min" : [
                -0.08893050253391266,
                4.9248337745666504e-05,
                -0.02201041579246521
            ],
            "type" : "VEC3"
        },
        {
            "bufferView" : 1,
            "componentType" : 5126,
            "count" : 6808,
            "type" : "VEC2"
        },
        {
            "bufferView" : 2,
            "componentType" : 5126,
            "count" : 6808,
            "type" : "VEC3"
        },
        {
            "bufferView" : 3,
            "componentType" : 5123,
            "count" : 20349,
            "type" : "SCALAR"
        }
    ],
    "bufferViews" : [
        {
            "buffer" : 0,
            "byteLength" : 81696,
            "byteOffset" : 0,
            "target" : 34962
        },
        {
            "buffer" : 0,
            "byteLength" : 54464,
            "byteOffset" : 81696,
            "target" : 34962
        },
        {
            "buffer" : 0,
            "byteLength" : 81696,
            "byteOffset" : 136160,
            "target" : 34962
        },
        {
            "buffer" : 0,
            "byteLength" : 40698,
            "byteOffset" : 217856,
            "target" : 34963
        }
    ],
    "samplers" : [
        {
            "magFilter" : 9729,
            "minFilter" : 9987
        }
    ],
    "buffers" : [
        {
            "byteLength" : 258556,
            "uri" : "model.bin"
        }
    ]
}
