{
    "asset" : {
        "generator" : "Khronos glTF Blender I/O v3.4.50",
        "version" : "2.0"
    },
    "scene" : 0,
    "scenes" : [
        {
            "name" : "Scene",
            "nodes" : [
                0
            ]
        }
    ],
    "nodes" : [
        {
            "mesh" : 0,
            "name" : "seeding_tray_01"
        }
    ],
    "materials" : [
        {
            "doubleSided" : true,
            "name" : "seeding_tray_01",
            "normalTexture" : {
                "index" : 0
            },
            "pbrMetallicRoughness" : {
                "baseColorTexture" : {
                    "index" : 1
                },
                "metallicRoughnessTexture" : {
                    "index" : 2
                }
            }
        }
    ],
    "meshes" : [
        {
            "name" : "Plane.007",
            "primitives" : [
                {
                    "attributes" : {
                        "POSITION" : 0,
                        "TEXCOORD_0" : 1,
                        "NORMAL" : 2
                    },
                    "indices" : 3,
                    "material" : 0
                }
            ]
        }
    ],
    "textures" : [
        {
            "sampler" : 0,
            "source" : 0
        },
        {
            "sampler" : 0,
            "source" : 1
        },
        {
            "sampler" : 0,
            "source" : 2
        }
    ],
    "images" : [
        {
            "mimeType" : "image/jpeg",
            "name" : "seeding_tray_01_nor_gl",
            "uri" : "seeding_tray_01_nor_gl.jpg"
        },
        {
            "mimeType" : "image/jpeg",
            "name" : "seeding_tray_01_diff_1k",
            "uri" : "seeding_tray_01_diff_1k.jpg"
        },
        {
            "mimeType" : "image/jpeg",
            "name" : "seeding_tray_01_metal-seeding_tray_01_rough",
            "uri" : "seeding_tray_01_metal-seeding_tray_01_rough.jpg"
        }
    ],
    "accessors" : [
        {
            "bufferView" : 0,
            "componentType" : 5126,
            "count" : 2649,
            "max" : [
                0.11010376363992691,
                0.0614255890250206,
                0.10853949189186096
            ],
            "min" : [
                -0.11010386049747467,
                0.0006606094539165497,
                -0.10853935778141022
            ],
            "type" : "VEC3"
        },
        {
            "bufferView" : 1,
            "componentType" : 5126,
            "count" : 2649,
            "type" : "VEC2"
        },
        {
            "bufferView" : 2,
            "componentType" : 5126,
            "count" : 2649,
            "type" : "VEC3"
        },
        {
            "bufferView" : 3,
            "componentType" : 5123,
            "count" : 8952,
            "type" : "SCALAR"
        }
    ],
    "bufferViews" : [
        {
            "buffer" : 0,
            "byteLength" : 31788,
            "byteOffset" : 0,
            "target" : 34962
        },
        {
            "buffer" : 0,
            "byteLength" : 21192,
            "byteOffset" : 31788,
            "target" : 34962
        },
        {
            "buffer" : 0,
            "byteLength" : 31788,
            "byteOffset" : 52980,
            "target" : 34962
        },
        {
            "buffer" : 0,
            "byteLength" : 17904,
            "byteOffset" : 84768,
            "target" : 34963
        }
    ],
    "samplers" : [
        {
            "magFilter" : 9729,
            "minFilter" : 9987
        }
    ],
    "buffers" : [
        {
            "byteLength" : 102672,
            "uri" : "model.bin"
        }
    ]
}
