{
    "asset" : {
        "generator" : "Khronos glTF Blender I/O v3.4.50",
        "version" : "2.0"
    },
    "scene" : 0,
    "scenes" : [
        {
            "name" : "Scene",
            "nodes" : [
                0
            ]
        }
    ],
    "nodes" : [
        {
            "mesh" : 0,
            "name" : "potted_plant_04"
        }
    ],
    "materials" : [
        {
            "doubleSided" : true,
            "name" : "PottedPlant_04",
            "normalTexture" : {
                "index" : 0
            },
            "pbrMetallicRoughness" : {
                "baseColorTexture" : {
                    "index" : 1
                },
                "metallicRoughnessTexture" : {
                    "index" : 2
                }
            }
        }
    ],
    "meshes" : [
        {
            "name" : "Plane.118",
            "primitives" : [
                {
                    "attributes" : {
                        "POSITION" : 0,
                        "TEXCOORD_0" : 1,
                        "NORMAL" : 2
                    },
                    "indices" : 3,
                    "material" : 0
                }
            ]
        }
    ],
    "textures" : [
        {
            "sampler" : 0,
            "source" : 0
        },
        {
            "sampler" : 0,
            "source" : 1
        },
        {
            "sampler" : 0,
            "source" : 2
        }
    ],
    "images" : [
        {
            "mimeType" : "image/jpeg",
            "name" : "potted_plant_04_gl_normal",
            "uri" : "potted_plant_04_gl_normal.jpg"
        },
        {
            "mimeType" : "image/jpeg",
            "name" : "potted_plant_04_diff_1k",
            "uri" : "potted_plant_04_diff_1k.jpg"
        },
        {
            "mimeType" : "image/jpeg",
            "name" : "potted_plant_04_metallic-potted_plant_04_roughness",
            "uri" : "potted_plant_04_metallic-potted_plant_04_roughness.jpg"
        }
    ],
    "accessors" : [
        {
            "bufferView" : 0,
            "componentType" : 5126,
            "count" : 8135,
            "max" : [
                0.08331076055765152,
                0.266735315322876,
                0.09981643408536911
            ],
            "min" : [
                -0.08365065604448318,
                0.00015207193791866302,
                -0.08232961595058441
            ],
            "type" : "VEC3"
        },
        {
            "bufferView" : 1,
            "componentType" : 5126,
            "count" : 8135,
            "type" : "VEC2"
        },
        {
            "bufferView" : 2,
            "componentType" : 5126,
            "count" : 8135,
            "type" : "VEC3"
        },
        {
            "bufferView" : 3,
            "componentType" : 5123,
            "count" : 35751,
            "type" : "SCALAR"
        }
    ],
    "bufferViews" : [
        {
            "buffer" : 0,
            "byteLength" : 97620,
            "byteOffset" : 0,
            "target" : 34962
        },
        {
            "buffer" : 0,
            "byteLength" : 65080,
            "byteOffset" : 97620,
            "target" : 34962
        },
        {
            "buffer" : 0,
            "byteLength" : 97620,
            "byteOffset" : 162700,
            "target" : 34962
        },
        {
            "buffer" : 0,
            "byteLength" : 71502,
            "byteOffset" : 260320,
            "target" : 34963
        }
    ],
    "samplers" : [
        {
            "magFilter" : 9729,
            "minFilter" : 9987
        }
    ],
    "buffers" : [
        {
            "byteLength" : 331824,
            "uri" : "model.bin"
        }
    ]
}
