{
    "asset" : {
        "generator" : "Khronos glTF Blender I/O v3.4.50",
        "version" : "2.0"
    },
    "extensionsUsed" : [
        "KHR_materials_specular",
        "KHR_materials_ior"
    ],
    "scene" : 0,
    "scenes" : [
        {
            "name" : "Scene",
            "nodes" : [
                0,
                1
            ]
        }
    ],
    "nodes" : [
        {
            "mesh" : 0,
            "name" : "cassette_player_body",
            "rotation" : [
                0.7071068286895752,
                0,
                0,
                0.7071068286895752
            ]
        },
        {
            "mesh" : 1,
            "name" : "cassette_player_tape",
            "rotation" : [
                0.7071068286895752,
                0,
                0,
                0.7071068286895752
            ],
            "translation" : [
                0.0015952395042404532,
                -0.02087916061282158,
                0.04353120177984238
            ]
        }
    ],
    "materials" : [
        {
            "doubleSided" : true,
            "extensions" : {
                "KHR_materials_specular" : {
                    "specularColorFactor" : [
                        2.371357614441398,
                        2.371357614441398,
                        2.371357614441398
                    ]
                },
                "KHR_materials_ior" : {
                    "ior" : 1.4500000476837158
                }
            },
            "name" : "cassette_player_body",
            "normalTexture" : {
                "index" : 0
            },
            "pbrMetallicRoughness" : {
                "baseColorTexture" : {
                    "index" : 1
                },
                "metallicRoughnessTexture" : {
                    "index" : 2
                }
            }
        },
        {
            "alphaMode" : "BLEND",
            "doubleSided" : true,
            "extensions" : {
                "KHR_materials_specular" : {
                    "specularColorFactor" : [
                        2.371357614441398,
                        2.371357614441398,
                        2.371357614441398
                    ]
                },
                "KHR_materials_ior" : {
                    "ior" : 1.4500000476837158
                }
            },
            "name" : "cassette_player_flap",
            "normalTexture" : {
                "index" : 3
            },
            "pbrMetallicRoughness" : {
                "baseColorTexture" : {
                    "index" : 4
                },
                "metallicRoughnessTexture" : {
                    "index" : 5
                }
            }
        },
        {
            "doubleSided" : true,
            "extensions" : {
                "KHR_materials_specular" : {
                    "specularColorFactor" : [
                        2.371357614441398,
                        2.371357614441398,
                        2.371357614441398
                    ]
                },
                "KHR_materials_ior" : {
                    "ior" : 1.4500000476837158
                }
            },
            "name" : "cassette_player_tape",
            "normalTexture" : {
                "index" : 6
            },
            "pbrMetallicRoughness" : {
                "baseColorTexture" : {
                    "index" : 7
                },
                "metallicRoughnessTexture" : {
                    "index" : 8
                }
            }
        }
    ],
    "meshes" : [
        {
            "name" : "Cube.001",
            "primitives" : [
                {
                    "attributes" : {
                        "POSITION" : 0,
                        "TEXCOORD_0" : 1,
                        "NORMAL" : 2
                    },
                    "indices" : 3,
                    "material" : 0
                },
                {
                    "attributes" : {
                        "POSITION" : 4,
                        "TEXCOORD_0" : 5,
                        "NORMAL" : 6
                    },
                    "indices" : 7,
                    "material" : 1
                }
            ]
        },
        {
            "name" : "Cube.006",
            "primitives" : [
                {
                    "attributes" : {
                        "POSITION" : 8,
                        "TEXCOORD_0" : 9,
                        "NORMAL" : 10
                    },
                    "indices" : 11,
                    "material" : 2
                }
            ]
        }
    ],
    "textures" : [
        {
            "sampler" : 0,
            "source" : 0
        },
        {
            "sampler" : 0,
            "source" : 1
        },
        {
            "sampler" : 0,
            "source" : 2
        },
        {
            "sampler" : 0,
            "source" : 0
        },
        {
            "sampler" : 0,
            "source" : 3
        },
        {
            "sampler" : 0,
            "source" : 4
        },
        {
            "sampler" : 0,
            "source" : 5
        },
        {
            "sampler" : 0,
            "source" : 6
        },
        {
            "sampler" : 0,
            "source" : 7
        }
    ],
    "images" : [
        {
            "mimeType" : "image/jpeg",
            "name" : "cassette_player_body_nor_gl_1k",
            "uri" : "cassette_player_body_nor_gl_1k.jpg"
        },
        {
            "mimeType" : "image/jpeg",
            "name" : "cassette_player_body_diff_1k",
            "uri" : "cassette_player_body_diff_1k.jpg"
        },
        {
            "mimeType" : "image/jpeg",
            "name" : "cassette_player_body_metallic-cassette_player_body_roughness",
            "uri" : "cassette_player_body_metallic-cassette_player_body_roughness.jpg"
        },
        {
            "mimeType" : "image/png",
            "name" : "cassette_player_body_diff.png-cassette_player_body_opacity",
            "uri" : "cassette_player_body_diff_png-cassette_player_body_opacity.png"
        },
        {
            "mimeType" : "image/jpeg",
            "name" : "cassette_player_body_metallic.png-cassette_player_body_roughness.png",
            "uri" : "cassette_player_body_metallic_png-cassette_player_body_roughness_png.jpg"
        },
        {
            "mimeType" : "image/jpeg",
            "name" : "cassette_player_tape_nor_gl_1k",
            "uri" : "cassette_player_tape_nor_gl_1k.jpg"
        },
        {
            "mimeType" : "image/jpeg",
            "name" : "cassette_player_tape_orangeblue_diff_1k",
            "uri" : "cassette_player_tape_orangeblue_diff_1k.jpg"
        },
        {
            "mimeType" : "image/jpeg",
            "name" : "cassette_player_tape_metallic-cassette_player_tape_roughness",
            "uri" : "cassette_player_tape_metallic-cassette_player_tape_roughness.jpg"
        }
    ],
    "accessors" : [
        {
            "bufferView" : 0,
            "componentType" : 5126,
            "count" : 1666,
            "max" : [
                0.06446593254804611,
                0.04887987673282623,
                0.11076042056083679
            ],
            "min" : [
                -0.06453672051429749,
                -2.12662421006371e-08,
                -0.12605740129947662
            ],
            "type" : "VEC3"
        },
        {
            "bufferView" : 1,
            "componentType" : 5126,
            "count" : 1666,
            "type" : "VEC2"
        },
        {
            "bufferView" : 2,
            "componentType" : 5126,
            "count" : 1666,
            "type" : "VEC3"
        },
        {
            "bufferView" : 3,
            "componentType" : 5123,
            "count" : 6027,
            "type" : "SCALAR"
        },
        {
            "bufferView" : 4,
            "componentType" : 5126,
            "count" : 132,
            "max" : [
                0.053463999181985855,
                0.047965746372938156,
                0.055148664861917496
            ],
            "min" : [
                -0.050505977123975754,
                0.040600571781396866,
                -0.01750969886779785
            ],
            "type" : "VEC3"
        },
        {
            "bufferView" : 5,
            "componentType" : 5126,
            "count" : 132,
            "type" : "VEC2"
        },
        {
            "bufferView" : 6,
            "componentType" : 5126,
            "count" : 132,
            "type" : "VEC3"
        },
        {
            "bufferView" : 7,
            "componentType" : 5123,
            "count" : 312,
            "type" : "SCALAR"
        },
        {
            "bufferView" : 8,
            "componentType" : 5126,
            "count" : 772,
            "max" : [
                0.050250012427568436,
                0.003546199994161725,
                0.03237982466816902
            ],
            "min" : [
                -0.050250012427568436,
                -0.003546191845089197,
                -0.03233935683965683
            ],
            "type" : "VEC3"
        },
        {
            "bufferView" : 9,
            "componentType" : 5126,
            "count" : 772,
            "type" : "VEC2"
        },
        {
            "bufferView" : 10,
            "componentType" : 5126,
            "count" : 772,
            "type" : "VEC3"
        },
        {
            "bufferView" : 11,
            "componentType" : 5123,
            "count" : 3108,
            "type" : "SCALAR"
        }
    ],
    "bufferViews" : [
        {
            "buffer" : 0,
            "byteLength" : 19992,
            "byteOffset" : 0,
            "target" : 34962
        },
        {
            "buffer" : 0,
            "byteLength" : 13328,
            "byteOffset" : 19992,
            "target" : 34962
        },
        {
            "buffer" : 0,
            "byteLength" : 19992,
            "byteOffset" : 33320,
            "target" : 34962
        },
        {
            "buffer" : 0,
            "byteLength" : 12054,
            "byteOffset" : 53312,
            "target" : 34963
        },
        {
            "buffer" : 0,
            "byteLength" : 1584,
            "byteOffset" : 65368,
            "target" : 34962
        },
        {
            "buffer" : 0,
            "byteLength" : 1056,
            "byteOffset" : 66952,
            "target" : 34962
        },
        {
            "buffer" : 0,
            "byteLength" : 1584,
            "byteOffset" : 68008,
            "target" : 34962
        },
        {
            "buffer" : 0,
            "byteLength" : 624,
            "byteOffset" : 69592,
            "target" : 34963
        },
        {
            "buffer" : 0,
            "byteLength" : 9264,
            "byteOffset" : 70216,
            "target" : 34962
        },
        {
            "buffer" : 0,
            "byteLength" : 6176,
            "byteOffset" : 79480,
            "target" : 34962
        },
        {
            "buffer" : 0,
            "byteLength" : 9264,
            "byteOffset" : 85656,
            "target" : 34962
        },
        {
            "buffer" : 0,
            "byteLength" : 6216,
            "byteOffset" : 94920,
            "target" : 34963
        }
    ],
    "samplers" : [
        {
            "magFilter" : 9729,
            "minFilter" : 9987
        }
    ],
    "buffers" : [
        {
            "byteLength" : 101136,
            "uri" : "model.bin"
        }
    ]
}
