{
    "asset" : {
        "generator" : "Khronos glTF Blender I/O v3.4.50",
        "version" : "2.0"
    },
    "scene" : 0,
    "scenes" : [
        {
            "name" : "Scene",
            "nodes" : [
                0
            ]
        }
    ],
    "nodes" : [
        {
            "mesh" : 0,
            "name" : "standing_picture_frame_01",
            "translation" : [
                0.03074725717306137,
                0,
                0.03600948676466942
            ]
        }
    ],
    "materials" : [
        {
            "alphaMode" : "BLEND",
            "doubleSided" : true,
            "name" : "standing_picture_frame_01_glass",
            "normalTexture" : {
                "index" : 0
            },
            "pbrMetallicRoughness" : {
                "baseColorTexture" : {
                    "index" : 1
                },
                "metallicRoughnessTexture" : {
                    "index" : 2
                }
            }
        },
        {
            "doubleSided" : true,
            "name" : "standing_picture_frame_01_artwork",
            "normalTexture" : {
                "index" : 3
            },
            "pbrMetallicRoughness" : {
                "baseColorTexture" : {
                    "index" : 4
                },
                "metallicFactor" : 0,
                "metallicRoughnessTexture" : {
                    "index" : 5
                }
            }
        },
        {
            "doubleSided" : true,
            "name" : "standing_picture_frame_01",
            "normalTexture" : {
                "index" : 6
            },
            "pbrMetallicRoughness" : {
                "baseColorTexture" : {
                    "index" : 7
                },
                "metallicRoughnessTexture" : {
                    "index" : 8
                }
            }
        }
    ],
    "meshes" : [
        {
            "name" : "Cube.001",
            "primitives" : [
                {
                    "attributes" : {
                        "POSITION" : 0,
                        "TEXCOORD_0" : 1,
                        "NORMAL" : 2
                    },
                    "indices" : 3,
                    "material" : 0
                },
                {
                    "attributes" : {
                        "POSITION" : 4,
                        "TEXCOORD_0" : 5,
                        "NORMAL" : 6
                    },
                    "indices" : 3,
                    "material" : 1
                },
                {
                    "attributes" : {
                        "POSITION" : 7,
                        "TEXCOORD_0" : 8,
                        "NORMAL" : 9
                    },
                    "indices" : 10,
                    "material" : 2
                }
            ]
        }
    ],
    "textures" : [
        {
            "sampler" : 0,
            "source" : 0
        },
        {
            "sampler" : 0,
            "source" : 1
        },
        {
            "sampler" : 0,
            "source" : 2
        },
        {
            "sampler" : 0,
            "source" : 3
        },
        {
            "sampler" : 0,
            "source" : 4
        },
        {
            "sampler" : 0,
            "source" : 5
        },
        {
            "sampler" : 0,
            "source" : 6
        },
        {
            "sampler" : 0,
            "source" : 1
        },
        {
            "sampler" : 0,
            "source" : 7
        }
    ],
    "images" : [
        {
            "mimeType" : "image/jpeg",
            "name" : "standing_picture_frame_01_nor_gl",
            "uri" : "standing_picture_frame_01_nor_gl.jpg"
        },
        {
            "mimeType" : "image/jpeg",
            "name" : "standing_picture_frame_01_diff_1k",
            "uri" : "standing_picture_frame_01_diff_1k.jpg"
        },
        {
            "mimeType" : "image/jpeg",
            "name" : "standing_picture_frame_01_metal-standing_picture_frame_01_rough",
            "uri" : "standing_picture_frame_01_metal-standing_picture_frame_01_rough.jpg"
        },
        {
            "mimeType" : "image/jpeg",
            "name" : "standing_picture_frame_01_artwork_nor_gl_1k",
            "uri" : "standing_picture_frame_01_artwork_nor_gl_1k.jpg"
        },
        {
            "mimeType" : "image/jpeg",
            "name" : "standing_picture_frame_01_artwork_diff_1k",
            "uri" : "standing_picture_frame_01_artwork_diff_1k.jpg"
        },
        {
            "mimeType" : "image/jpeg",
            "name" : "standing_picture_frame_01_artwork_rough_1k",
            "uri" : "standing_picture_frame_01_artwork_rough_1k.jpg"
        },
        {
            "mimeType" : "image/jpeg",
            "name" : "standing_picture_frame_01_nor_gl.png",
            "uri" : "standing_picture_frame_01_nor_gl_png.jpg"
        },
        {
            "mimeType" : "image/jpeg",
            "name" : "standing_picture_frame_01_metal.png-standing_picture_frame_01_rough.png",
            "uri" : "standing_picture_frame_01_metal_png-standing_picture_frame_01_rough_png.jpg"
        }
    ],
    "accessors" : [
        {
            "bufferView" : 0,
            "componentType" : 5126,
            "count" : 4,
            "max" : [
                0.08932866156101227,
                0.2374529242515564,
                0.030839810147881508
            ],
            "min" : [
                -0.08932866156101227,
                0.012386173009872437,
                -0.012908708304166794
            ],
            "type" : "VEC3"
        },
        {
            "bufferView" : 1,
            "componentType" : 5126,
            "count" : 4,
            "type" : "VEC2"
        },
        {
            "bufferView" : 2,
            "componentType" : 5126,
            "count" : 4,
            "type" : "VEC3"
        },
        {
            "bufferView" : 3,
            "componentType" : 5123,
            "count" : 6,
            "type" : "SCALAR"
        },
        {
            "bufferView" : 4,
            "componentType" : 5126,
            "count" : 4,
            "max" : [
                0.06587035208940506,
                0.2176748812198639,
                0.0247495099902153
            ],
            "min" : [
                -0.06587035208940506,
                0.03236065059900284,
                -0.011271904222667217
            ],
            "type" : "VEC3"
        },
        {
            "bufferView" : 5,
            "componentType" : 5126,
            "count" : 4,
            "type" : "VEC2"
        },
        {
            "bufferView" : 6,
            "componentType" : 5126,
            "count" : 4,
            "type" : "VEC3"
        },
        {
            "bufferView" : 7,
            "componentType" : 5126,
            "count" : 1100,
            "max" : [
                0.1003999263048172,
                0.2491837441921234,
                0.03865445777773857
            ],
            "min" : [
                -0.1003999263048172,
                -0.0004743710160255432,
                -0.06162241846323013
            ],
            "type" : "VEC3"
        },
        {
            "bufferView" : 8,
            "componentType" : 5126,
            "count" : 1100,
            "type" : "VEC2"
        },
        {
            "bufferView" : 9,
            "componentType" : 5126,
            "count" : 1100,
            "type" : "VEC3"
        },
        {
            "bufferView" : 10,
            "componentType" : 5123,
            "count" : 3558,
            "type" : "SCALAR"
        }
    ],
    "bufferViews" : [
        {
            "buffer" : 0,
            "byteLength" : 48,
            "byteOffset" : 0,
            "target" : 34962
        },
        {
            "buffer" : 0,
            "byteLength" : 32,
            "byteOffset" : 48,
            "target" : 34962
        },
        {
            "buffer" : 0,
            "byteLength" : 48,
            "byteOffset" : 80,
            "target" : 34962
        },
        {
            "buffer" : 0,
            "byteLength" : 12,
            "byteOffset" : 128,
            "target" : 34963
        },
        {
            "buffer" : 0,
            "byteLength" : 48,
            "byteOffset" : 140,
            "target" : 34962
        },
        {
            "buffer" : 0,
            "byteLength" : 32,
            "byteOffset" : 188,
            "target" : 34962
        },
        {
            "buffer" : 0,
            "byteLength" : 48,
            "byteOffset" : 220,
            "target" : 34962
        },
        {
            "buffer" : 0,
            "byteLength" : 13200,
            "byteOffset" : 268,
            "target" : 34962
        },
        {
            "buffer" : 0,
            "byteLength" : 8800,
            "byteOffset" : 13468,
            "target" : 34962
        },
        {
            "buffer" : 0,
            "byteLength" : 13200,
            "byteOffset" : 22268,
            "target" : 34962
        },
        {
            "buffer" : 0,
            "byteLength" : 7116,
            "byteOffset" : 35468,
            "target" : 34963
        }
    ],
    "samplers" : [
        {
            "magFilter" : 9729,
            "minFilter" : 9987
        }
    ],
    "buffers" : [
        {
            "byteLength" : 42584,
            "uri" : "model.bin"
        }
    ]
}
