{
    "asset" : {
        "generator" : "Khronos glTF Blender I/O v3.4.50",
        "version" : "2.0"
    },
    "scene" : 0,
    "scenes" : [
        {
            "name" : "Scene",
            "nodes" : [
                0
            ]
        }
    ],
    "nodes" : [
        {
            "mesh" : 0,
            "name" : "carrot_cake"
        }
    ],
    "materials" : [
        {
            "doubleSided" : true,
            "name" : "carrot_cake",
            "normalTexture" : {
                "index" : 0
            },
            "pbrMetallicRoughness" : {
                "baseColorTexture" : {
                    "index" : 1
                },
                "metallicRoughnessTexture" : {
                    "index" : 2
                }
            }
        }
    ],
    "meshes" : [
        {
            "name" : "carrot_cake_Model_3.001",
            "primitives" : [
                {
                    "attributes" : {
                        "POSITION" : 0,
                        "TEXCOORD_0" : 1,
                        "NORMAL" : 2
                    },
                    "indices" : 3,
                    "material" : 0
                }
            ]
        }
    ],
    "textures" : [
        {
            "sampler" : 0,
            "source" : 0
        },
        {
            "sampler" : 0,
            "source" : 1
        },
        {
            "sampler" : 0,
            "source" : 2
        }
    ],
    "images" : [
        {
            "mimeType" : "image/jpeg",
            "name" : "carrot_cake_nor_gl",
            "uri" : "carrot_cake_nor_gl.jpg"
        },
        {
            "mimeType" : "image/jpeg",
            "name" : "carrot_cake_diff_1k",
            "uri" : "carrot_cake_diff_1k.jpg"
        },
        {
            "mimeType" : "image/jpeg",
            "name" : "carrot_cake_metal-carrot_cake_rough",
            "uri" : "carrot_cake_metal-carrot_cake_rough.jpg"
        }
    ],
    "accessors" : [
        {
            "bufferView" : 0,
            "componentType" : 5126,
            "count" : 6496,
            "max" : [
                0.11214792728424072,
                0.09536007791757584,
                0.11087862402200699
            ],
            "min" : [
                -0.11327344924211502,
                -0.002212886232882738,
                -0.11377692222595215
            ],
            "type" : "VEC3"
        },
        {
            "bufferView" : 1,
            "componentType" : 5126,
            "count" : 6496,
            "type" : "VEC2"
        },
        {
            "bufferView" : 2,
            "componentType" : 5126,
            "count" : 6496,
            "type" : "VEC3"
        },
        {
            "bufferView" : 3,
            "componentType" : 5123,
            "count" : 26214,
            "type" : "SCALAR"
        }
    ],
    "bufferViews" : [
        {
            "buffer" : 0,
            "byteLength" : 77952,
            "byteOffset" : 0,
            "target" : 34962
        },
        {
            "buffer" : 0,
            "byteLength" : 51968,
            "byteOffset" : 77952,
            "target" : 34962
        },
        {
            "buffer" : 0,
            "byteLength" : 77952,
            "byteOffset" : 129920,
            "target" : 34962
        },
        {
            "buffer" : 0,
            "byteLength" : 52428,
            "byteOffset" : 207872,
            "target" : 34963
        }
    ],
    "samplers" : [
        {
            "magFilter" : 9729,
            "minFilter" : 9987
        }
    ],
    "buffers" : [
        {
            "byteLength" : 260300,
            "uri" : "model.bin"
        }
    ]
}
