{
    "asset" : {
        "generator" : "Khronos glTF Blender I/O v3.4.50",
        "version" : "2.0"
    },
    "scene" : 0,
    "scenes" : [
        {
            "name" : "Scene",
            "nodes" : [
                0
            ]
        }
    ],
    "nodes" : [
        {
            "mesh" : 0,
            "name" : "tire_pump"
        }
    ],
    "materials" : [
        {
            "doubleSided" : true,
            "name" : "tire_pump",
            "normalTexture" : {
                "index" : 0
            },
            "pbrMetallicRoughness" : {
                "baseColorTexture" : {
                    "index" : 1
                },
                "metallicRoughnessTexture" : {
                    "index" : 2
                }
            }
        }
    ],
    "meshes" : [
        {
            "name" : "Cube.016",
            "primitives" : [
                {
                    "attributes" : {
                        "POSITION" : 0,
                        "TEXCOORD_0" : 1,
                        "NORMAL" : 2
                    },
                    "indices" : 3,
                    "material" : 0
                }
            ]
        }
    ],
    "textures" : [
        {
            "sampler" : 0,
            "source" : 0
        },
        {
            "sampler" : 0,
            "source" : 1
        },
        {
            "sampler" : 0,
            "source" : 2
        }
    ],
    "images" : [
        {
            "mimeType" : "image/jpeg",
            "name" : "tire_pump_nor_gl",
            "uri" : "tire_pump_nor_gl.jpg"
        },
        {
            "mimeType" : "image/jpeg",
            "name" : "tire_pump_diff_1k",
            "uri" : "tire_pump_diff_1k.jpg"
        },
        {
            "mimeType" : "image/jpeg",
            "name" : "tire_pump_metal-tire_pump_rough",
            "uri" : "tire_pump_metal-tire_pump_rough.jpg"
        }
    ],
    "accessors" : [
        {
            "bufferView" : 0,
            "componentType" : 5126,
            "count" : 2088,
            "max" : [
                0.12744751572608948,
                0.579365611076355,
                0.04125527665019035
            ],
            "min" : [
                -0.12744753062725067,
                6.928946822881699e-05,
                -0.05944175273180008
            ],
            "type" : "VEC3"
        },
        {
            "bufferView" : 1,
            "componentType" : 5126,
            "count" : 2088,
            "type" : "VEC2"
        },
        {
            "bufferView" : 2,
            "componentType" : 5126,
            "count" : 2088,
            "type" : "VEC3"
        },
        {
            "bufferView" : 3,
            "componentType" : 5123,
            "count" : 6711,
            "type" : "SCALAR"
        }
    ],
    "bufferViews" : [
        {
            "buffer" : 0,
            "byteLength" : 25056,
            "byteOffset" : 0,
            "target" : 34962
        },
        {
            "buffer" : 0,
            "byteLength" : 16704,
            "byteOffset" : 25056,
            "target" : 34962
        },
        {
            "buffer" : 0,
            "byteLength" : 25056,
            "byteOffset" : 41760,
            "target" : 34962
        },
        {
            "buffer" : 0,
            "byteLength" : 13422,
            "byteOffset" : 66816,
            "target" : 34963
        }
    ],
    "samplers" : [
        {
            "magFilter" : 9729,
            "minFilter" : 9987
        }
    ],
    "buffers" : [
        {
            "byteLength" : 80240,
            "uri" : "model.bin"
        }
    ]
}
