{
    "asset" : {
        "generator" : "Khronos glTF Blender I/O v3.4.50",
        "version" : "2.0"
    },
    "scene" : 0,
    "scenes" : [
        {
            "name" : "Scene",
            "nodes" : [
                0
            ]
        }
    ],
    "nodes" : [
        {
            "mesh" : 0,
            "name" : "garden_gloves_01"
        }
    ],
    "materials" : [
        {
            "doubleSided" : true,
            "name" : "garden_gloves_01",
            "normalTexture" : {
                "index" : 0
            },
            "pbrMetallicRoughness" : {
                "baseColorTexture" : {
                    "index" : 1
                },
                "metallicFactor" : 0,
                "metallicRoughnessTexture" : {
                    "index" : 2
                }
            }
        }
    ],
    "meshes" : [
        {
            "name" : "mesh.002",
            "primitives" : [
                {
                    "attributes" : {
                        "POSITION" : 0,
                        "TEXCOORD_0" : 1,
                        "NORMAL" : 2
                    },
                    "indices" : 3,
                    "material" : 0
                }
            ]
        }
    ],
    "textures" : [
        {
            "sampler" : 0,
            "source" : 0
        },
        {
            "sampler" : 0,
            "source" : 1
        },
        {
            "sampler" : 0,
            "source" : 2
        }
    ],
    "images" : [
        {
            "mimeType" : "image/jpeg",
            "name" : "garden_gloves_01_nor_gl",
            "uri" : "garden_gloves_01_nor_gl.jpg"
        },
        {
            "mimeType" : "image/jpeg",
            "name" : "garden_gloves_01_diff_1k",
            "uri" : "garden_gloves_01_diff_1k.jpg"
        },
        {
            "mimeType" : "image/jpeg",
            "name" : "garden_gloves_01_rough",
            "uri" : "garden_gloves_01_rough.jpg"
        }
    ],
    "accessors" : [
        {
            "bufferView" : 0,
            "componentType" : 5126,
            "count" : 1252,
            "max" : [
                0.11774531751871109,
                0.07576699554920197,
                0.17131264507770538
            ],
            "min" : [
                -0.10881177335977554,
                0.0006750356405973434,
                -0.12749861180782318
            ],
            "type" : "VEC3"
        },
        {
            "bufferView" : 1,
            "componentType" : 5126,
            "count" : 1252,
            "type" : "VEC2"
        },
        {
            "bufferView" : 2,
            "componentType" : 5126,
            "count" : 1252,
            "type" : "VEC3"
        },
        {
            "bufferView" : 3,
            "componentType" : 5123,
            "count" : 5844,
            "type" : "SCALAR"
        }
    ],
    "bufferViews" : [
        {
            "buffer" : 0,
            "byteLength" : 15024,
            "byteOffset" : 0,
            "target" : 34962
        },
        {
            "buffer" : 0,
            "byteLength" : 10016,
            "byteOffset" : 15024,
            "target" : 34962
        },
        {
            "buffer" : 0,
            "byteLength" : 15024,
            "byteOffset" : 25040,
            "target" : 34962
        },
        {
            "buffer" : 0,
            "byteLength" : 11688,
            "byteOffset" : 40064,
            "target" : 34963
        }
    ],
    "samplers" : [
        {
            "magFilter" : 9729,
            "minFilter" : 9987
        }
    ],
    "buffers" : [
        {
            "byteLength" : 51752,
            "uri" : "model.bin"
        }
    ]
}
