{
    "asset" : {
        "generator" : "Khronos glTF Blender I/O v3.4.50",
        "version" : "2.0"
    },
    "scene" : 0,
    "scenes" : [
        {
            "name" : "Scene",
            "nodes" : [
                0,
                1,
                2
            ]
        }
    ],
    "nodes" : [
        {
            "mesh" : 0,
            "name" : "gate_latch_01_frame"
        },
        {
            "mesh" : 1,
            "name" : "gate_latch_01_latch",
            "translation" : [
                0.14613670110702515,
                0.00035465345717966557,
                0.005860715173184872
            ]
        },
        {
            "mesh" : 2,
            "name" : "gate_latch_01_hook",
            "translation" : [
                0.00014534266665577888,
                0.0018835035152733326,
                0.015300548635423183
            ]
        }
    ],
    "materials" : [
        {
            "doubleSided" : true,
            "name" : "gate_latch_01",
            "normalTexture" : {
                "index" : 0
            },
            "pbrMetallicRoughness" : {
                "baseColorTexture" : {
                    "index" : 1
                },
                "metallicRoughnessTexture" : {
                    "index" : 2
                }
            }
        }
    ],
    "meshes" : [
        {
            "name" : "Cylinder.002",
            "primitives" : [
                {
                    "attributes" : {
                        "POSITION" : 0,
                        "TEXCOORD_0" : 1,
                        "NORMAL" : 2
                    },
                    "indices" : 3,
                    "material" : 0
                }
            ]
        },
        {
            "name" : "Cylinder.001",
            "primitives" : [
                {
                    "attributes" : {
                        "POSITION" : 4,
                        "TEXCOORD_0" : 5,
                        "NORMAL" : 6
                    },
                    "indices" : 7,
                    "material" : 0
                }
            ]
        },
        {
            "name" : "Cylinder.003",
            "primitives" : [
                {
                    "attributes" : {
                        "POSITION" : 8,
                        "TEXCOORD_0" : 9,
                        "NORMAL" : 10
                    },
                    "indices" : 11,
                    "material" : 0
                }
            ]
        }
    ],
    "textures" : [
        {
            "sampler" : 0,
            "source" : 0
        },
        {
            "sampler" : 0,
            "source" : 1
        },
        {
            "sampler" : 0,
            "source" : 2
        }
    ],
    "images" : [
        {
            "mimeType" : "image/jpeg",
            "name" : "gate_latch_01_nor_gl",
            "uri" : "gate_latch_01_nor_gl.jpg"
        },
        {
            "mimeType" : "image/jpeg",
            "name" : "gate_latch_01_diff_1k",
            "uri" : "gate_latch_01_diff_1k.jpg"
        },
        {
            "mimeType" : "image/jpeg",
            "name" : "gate_latch_01_metal-gate_latch_01_rough",
            "uri" : "gate_latch_01_metal-gate_latch_01_rough.jpg"
        }
    ],
    "accessors" : [
        {
            "bufferView" : 0,
            "componentType" : 5126,
            "count" : 920,
            "max" : [
                0.029757006093859673,
                0.040152255445718765,
                0.0656723752617836
            ],
            "min" : [
                -0.029757007956504822,
                -0.03682224452495575,
                0.00021857210958842188
            ],
            "type" : "VEC3"
        },
        {
            "bufferView" : 1,
            "componentType" : 5126,
            "count" : 920,
            "type" : "VEC2"
        },
        {
            "bufferView" : 2,
            "componentType" : 5126,
            "count" : 920,
            "type" : "VEC3"
        },
        {
            "bufferView" : 3,
            "componentType" : 5123,
            "count" : 2736,
            "type" : "SCALAR"
        },
        {
            "bufferView" : 4,
            "componentType" : 5126,
            "count" : 828,
            "max" : [
                0.0273746345192194,
                0.01180361770093441,
                0.03650236502289772
            ],
            "min" : [
                -0.17772036790847778,
                -0.011803616769611835,
                -2.0049204977112822e-05
            ],
            "type" : "VEC3"
        },
        {
            "bufferView" : 5,
            "componentType" : 5126,
            "count" : 828,
            "type" : "VEC2"
        },
        {
            "bufferView" : 6,
            "componentType" : 5126,
            "count" : 828,
            "type" : "VEC3"
        },
        {
            "bufferView" : 7,
            "componentType" : 5123,
            "count" : 4032,
            "type" : "SCALAR"
        },
        {
            "bufferView" : 8,
            "componentType" : 5126,
            "count" : 846,
            "max" : [
                0.0016911119455471635,
                0.046718697994947433,
                0.059667374938726425
            ],
            "min" : [
                -0.0016502923099324107,
                -0.024163294583559036,
                -0.008264887146651745
            ],
            "type" : "VEC3"
        },
        {
            "bufferView" : 9,
            "componentType" : 5126,
            "count" : 846,
            "type" : "VEC2"
        },
        {
            "bufferView" : 10,
            "componentType" : 5126,
            "count" : 846,
            "type" : "VEC3"
        },
        {
            "bufferView" : 11,
            "componentType" : 5123,
            "count" : 3540,
            "type" : "SCALAR"
        }
    ],
    "bufferViews" : [
        {
            "buffer" : 0,
            "byteLength" : 11040,
            "byteOffset" : 0,
            "target" : 34962
        },
        {
            "buffer" : 0,
            "byteLength" : 7360,
            "byteOffset" : 11040,
            "target" : 34962
        },
        {
            "buffer" : 0,
            "byteLength" : 11040,
            "byteOffset" : 18400,
            "target" : 34962
        },
        {
            "buffer" : 0,
            "byteLength" : 5472,
            "byteOffset" : 29440,
            "target" : 34963
        },
        {
            "buffer" : 0,
            "byteLength" : 9936,
            "byteOffset" : 34912,
            "target" : 34962
        },
        {
            "buffer" : 0,
            "byteLength" : 6624,
            "byteOffset" : 44848,
            "target" : 34962
        },
        {
            "buffer" : 0,
            "byteLength" : 9936,
            "byteOffset" : 51472,
            "target" : 34962
        },
        {
            "buffer" : 0,
            "byteLength" : 8064,
            "byteOffset" : 61408,
            "target" : 34963
        },
        {
            "buffer" : 0,
            "byteLength" : 10152,
            "byteOffset" : 69472,
            "target" : 34962
        },
        {
            "buffer" : 0,
            "byteLength" : 6768,
            "byteOffset" : 79624,
            "target" : 34962
        },
        {
            "buffer" : 0,
            "byteLength" : 10152,
            "byteOffset" : 86392,
            "target" : 34962
        },
        {
            "buffer" : 0,
            "byteLength" : 7080,
            "byteOffset" : 96544,
            "target" : 34963
        }
    ],
    "samplers" : [
        {
            "magFilter" : 9729,
            "minFilter" : 9987
        }
    ],
    "buffers" : [
        {
            "byteLength" : 103624,
            "uri" : "model.bin"
        }
    ]
}
