{
    "asset" : {
        "generator" : "Khronos glTF Blender I/O v3.4.50",
        "version" : "2.0"
    },
    "scene" : 0,
    "scenes" : [
        {
            "name" : "Scene",
            "nodes" : [
                0
            ]
        }
    ],
    "nodes" : [
        {
            "mesh" : 0,
            "name" : "ClassicConsole_01"
        }
    ],
    "materials" : [
        {
            "doubleSided" : true,
            "name" : "ClassicConsole_01",
            "normalTexture" : {
                "index" : 0
            },
            "pbrMetallicRoughness" : {
                "baseColorTexture" : {
                    "index" : 1
                },
                "metallicRoughnessTexture" : {
                    "index" : 2
                }
            }
        }
    ],
    "meshes" : [
        {
            "name" : "Plane.000",
            "primitives" : [
                {
                    "attributes" : {
                        "POSITION" : 0,
                        "TEXCOORD_0" : 1,
                        "NORMAL" : 2
                    },
                    "indices" : 3,
                    "material" : 0
                }
            ]
        }
    ],
    "textures" : [
        {
            "sampler" : 0,
            "source" : 0
        },
        {
            "sampler" : 0,
            "source" : 1
        },
        {
            "sampler" : 0,
            "source" : 2
        }
    ],
    "images" : [
        {
            "mimeType" : "image/jpeg",
            "name" : "ClassicConsole_01_nor_gl",
            "uri" : "ClassicConsole_01_nor_gl.jpg"
        },
        {
            "mimeType" : "image/jpeg",
            "name" : "ClassicConsole_01_diff_1k",
            "uri" : "ClassicConsole_01_diff_1k.jpg"
        },
        {
            "mimeType" : "image/jpeg",
            "name" : "ClassicConsole_01_metallic-ClassicConsole_01_roughness",
            "uri" : "ClassicConsole_01_metallic-ClassicConsole_01_roughness.jpg"
        }
    ],
    "accessors" : [
        {
            "bufferView" : 0,
            "componentType" : 5126,
            "count" : 3861,
            "max" : [
                0.7690104842185974,
                0.949066162109375,
                0.22181855142116547
            ],
            "min" : [
                -0.767629086971283,
                -5.188380328036146e-06,
                -0.33838987350463867
            ],
            "type" : "VEC3"
        },
        {
            "bufferView" : 1,
            "componentType" : 5126,
            "count" : 3861,
            "type" : "VEC2"
        },
        {
            "bufferView" : 2,
            "componentType" : 5126,
            "count" : 3861,
            "type" : "VEC3"
        },
        {
            "bufferView" : 3,
            "componentType" : 5123,
            "count" : 14877,
            "type" : "SCALAR"
        }
    ],
    "bufferViews" : [
        {
            "buffer" : 0,
            "byteLength" : 46332,
            "byteOffset" : 0,
            "target" : 34962
        },
        {
            "buffer" : 0,
            "byteLength" : 30888,
            "byteOffset" : 46332,
            "target" : 34962
        },
        {
            "buffer" : 0,
            "byteLength" : 46332,
            "byteOffset" : 77220,
            "target" : 34962
        },
        {
            "buffer" : 0,
            "byteLength" : 29754,
            "byteOffset" : 123552,
            "target" : 34963
        }
    ],
    "samplers" : [
        {
            "magFilter" : 9729,
            "minFilter" : 9987
        }
    ],
    "buffers" : [
        {
            "byteLength" : 153308,
            "uri" : "model.bin"
        }
    ]
}
