{
    "asset" : {
        "generator" : "Khronos glTF Blender I/O v3.4.50",
        "version" : "2.0"
    },
    "scene" : 0,
    "scenes" : [
        {
            "name" : "Scene",
            "nodes" : [
                0
            ]
        }
    ],
    "nodes" : [
        {
            "mesh" : 0,
            "name" : "SchoolChair_01"
        }
    ],
    "materials" : [
        {
            "doubleSided" : true,
            "name" : "SchoolChair_01",
            "normalTexture" : {
                "index" : 0
            },
            "pbrMetallicRoughness" : {
                "baseColorTexture" : {
                    "index" : 1
                },
                "metallicRoughnessTexture" : {
                    "index" : 2
                }
            }
        }
    ],
    "meshes" : [
        {
            "name" : "Mesh",
            "primitives" : [
                {
                    "attributes" : {
                        "POSITION" : 0,
                        "TEXCOORD_0" : 1,
                        "NORMAL" : 2
                    },
                    "indices" : 3,
                    "material" : 0
                }
            ]
        }
    ],
    "textures" : [
        {
            "sampler" : 0,
            "source" : 0
        },
        {
            "sampler" : 0,
            "source" : 1
        },
        {
            "sampler" : 0,
            "source" : 2
        }
    ],
    "images" : [
        {
            "mimeType" : "image/jpeg",
            "name" : "SchoolChair_01_nor_gl",
            "uri" : "SchoolChair_01_nor_gl.jpg"
        },
        {
            "mimeType" : "image/jpeg",
            "name" : "SchoolChair_01_diff_1k",
            "uri" : "SchoolChair_01_diff_1k.jpg"
        },
        {
            "mimeType" : "image/jpeg",
            "name" : "SchoolChair_01_metallic-SchoolChair_01_roughness",
            "uri" : "SchoolChair_01_metallic-SchoolChair_01_roughness.jpg"
        }
    ],
    "accessors" : [
        {
            "bufferView" : 0,
            "componentType" : 5126,
            "count" : 1436,
            "max" : [
                0.28292661905288696,
                1.0023247003555298,
                0.333844929933548
            ],
            "min" : [
                -0.28292667865753174,
                -0.001708600320853293,
                -0.33762744069099426
            ],
            "type" : "VEC3"
        },
        {
            "bufferView" : 1,
            "componentType" : 5126,
            "count" : 1436,
            "type" : "VEC2"
        },
        {
            "bufferView" : 2,
            "componentType" : 5126,
            "count" : 1436,
            "type" : "VEC3"
        },
        {
            "bufferView" : 3,
            "componentType" : 5123,
            "count" : 5820,
            "type" : "SCALAR"
        }
    ],
    "bufferViews" : [
        {
            "buffer" : 0,
            "byteLength" : 17232,
            "byteOffset" : 0,
            "target" : 34962
        },
        {
            "buffer" : 0,
            "byteLength" : 11488,
            "byteOffset" : 17232,
            "target" : 34962
        },
        {
            "buffer" : 0,
            "byteLength" : 17232,
            "byteOffset" : 28720,
            "target" : 34962
        },
        {
            "buffer" : 0,
            "byteLength" : 11640,
            "byteOffset" : 45952,
            "target" : 34963
        }
    ],
    "samplers" : [
        {
            "magFilter" : 9729,
            "minFilter" : 9987
        }
    ],
    "buffers" : [
        {
            "byteLength" : 57592,
            "uri" : "model.bin"
        }
    ]
}
