{
    "asset" : {
        "generator" : "Khronos glTF Blender I/O v3.4.50",
        "version" : "2.0"
    },
    "scene" : 0,
    "scenes" : [
        {
            "name" : "Scene",
            "nodes" : [
                0
            ]
        }
    ],
    "nodes" : [
        {
            "mesh" : 0,
            "name" : "dining_chair_02"
        }
    ],
    "materials" : [
        {
            "doubleSided" : true,
            "name" : "dining_chair_02",
            "normalTexture" : {
                "index" : 0
            },
            "pbrMetallicRoughness" : {
                "baseColorTexture" : {
                    "index" : 1
                },
                "metallicRoughnessTexture" : {
                    "index" : 2
                }
            }
        }
    ],
    "meshes" : [
        {
            "name" : "Cube.054",
            "primitives" : [
                {
                    "attributes" : {
                        "POSITION" : 0,
                        "TEXCOORD_0" : 1,
                        "NORMAL" : 2
                    },
                    "indices" : 3,
                    "material" : 0
                }
            ]
        }
    ],
    "textures" : [
        {
            "sampler" : 0,
            "source" : 0
        },
        {
            "sampler" : 0,
            "source" : 1
        },
        {
            "sampler" : 0,
            "source" : 2
        }
    ],
    "images" : [
        {
            "mimeType" : "image/jpeg",
            "name" : "dining_chair_02_nor_gl.png",
            "uri" : "dining_chair_02_nor_gl_png.jpg"
        },
        {
            "mimeType" : "image/jpeg",
            "name" : "dining_chair_02_diff_1k",
            "uri" : "dining_chair_02_diff_1k.jpg"
        },
        {
            "mimeType" : "image/jpeg",
            "name" : "dining_chair_02_metal-dining_chair_02_rough.png",
            "uri" : "dining_chair_02_metal-dining_chair_02_rough_png.jpg"
        }
    ],
    "accessors" : [
        {
            "bufferView" : 0,
            "componentType" : 5126,
            "count" : 2860,
            "max" : [
                0.2133920043706894,
                0.9733521342277527,
                0.23533515632152557
            ],
            "min" : [
                -0.21125857532024384,
                0.0012850910425186157,
                -0.33102381229400635
            ],
            "type" : "VEC3"
        },
        {
            "bufferView" : 1,
            "componentType" : 5126,
            "count" : 2860,
            "type" : "VEC2"
        },
        {
            "bufferView" : 2,
            "componentType" : 5126,
            "count" : 2860,
            "type" : "VEC3"
        },
        {
            "bufferView" : 3,
            "componentType" : 5123,
            "count" : 12498,
            "type" : "SCALAR"
        }
    ],
    "bufferViews" : [
        {
            "buffer" : 0,
            "byteLength" : 34320,
            "byteOffset" : 0,
            "target" : 34962
        },
        {
            "buffer" : 0,
            "byteLength" : 22880,
            "byteOffset" : 34320,
            "target" : 34962
        },
        {
            "buffer" : 0,
            "byteLength" : 34320,
            "byteOffset" : 57200,
            "target" : 34962
        },
        {
            "buffer" : 0,
            "byteLength" : 24996,
            "byteOffset" : 91520,
            "target" : 34963
        }
    ],
    "samplers" : [
        {
            "magFilter" : 9729,
            "minFilter" : 9987
        }
    ],
    "buffers" : [
        {
            "byteLength" : 116516,
            "uri" : "model.bin"
        }
    ]
}
