{
    "asset" : {
        "generator" : "Khronos glTF Blender I/O v3.4.50",
        "version" : "2.0"
    },
    "extensionsUsed" : [
        "KHR_materials_specular",
        "KHR_materials_ior"
    ],
    "scene" : 0,
    "scenes" : [
        {
            "name" : "Scene",
            "nodes" : [
                0
            ]
        }
    ],
    "nodes" : [
        {
            "mesh" : 0,
            "name" : "modern_ceiling_lamp_01"
        }
    ],
    "materials" : [
        {
            "doubleSided" : true,
            "extensions" : {
                "KHR_materials_specular" : {
                    "specularColorFactor" : [
                        0.806261597390711,
                        0.806261597390711,
                        0.806261597390711
                    ]
                },
                "KHR_materials_ior" : {
                    "ior" : 1.4500000476837158
                }
            },
            "name" : "modern_ceiling_lamp_01_glass",
            "normalTexture" : {
                "index" : 0
            },
            "pbrMetallicRoughness" : {
                "baseColorTexture" : {
                    "index" : 1
                },
                "metallicRoughnessTexture" : {
                    "index" : 2
                }
            }
        },
        {
            "doubleSided" : true,
            "name" : "modern_ceiling_lamp_01",
            "normalTexture" : {
                "index" : 3
            },
            "pbrMetallicRoughness" : {
                "baseColorTexture" : {
                    "index" : 4
                },
                "metallicRoughnessTexture" : {
                    "index" : 5
                }
            }
        },
        {
            "doubleSided" : true,
            "emissiveFactor" : [
                0.6229580640792847,
                0.5416215658187866,
                0.4745504856109619
            ],
            "name" : "modern_ceiling_globe",
            "normalTexture" : {
                "index" : 6
            },
            "pbrMetallicRoughness" : {
                "baseColorTexture" : {
                    "index" : 7
                },
                "metallicRoughnessTexture" : {
                    "index" : 8
                }
            }
        }
    ],
    "meshes" : [
        {
            "name" : "Cylinder.003",
            "primitives" : [
                {
                    "attributes" : {
                        "POSITION" : 0,
                        "TEXCOORD_0" : 1,
                        "NORMAL" : 2
                    },
                    "indices" : 3,
                    "material" : 0
                },
                {
                    "attributes" : {
                        "POSITION" : 4,
                        "TEXCOORD_0" : 5,
                        "NORMAL" : 6
                    },
                    "indices" : 7,
                    "material" : 1
                },
                {
                    "attributes" : {
                        "POSITION" : 8,
                        "TEXCOORD_0" : 9,
                        "NORMAL" : 10
                    },
                    "indices" : 11,
                    "material" : 2
                }
            ]
        }
    ],
    "textures" : [
        {
            "sampler" : 0,
            "source" : 0
        },
        {
            "sampler" : 0,
            "source" : 1
        },
        {
            "sampler" : 0,
            "source" : 2
        },
        {
            "sampler" : 0,
            "source" : 0
        },
        {
            "sampler" : 0,
            "source" : 1
        },
        {
            "sampler" : 0,
            "source" : 2
        },
        {
            "sampler" : 0,
            "source" : 0
        },
        {
            "sampler" : 0,
            "source" : 1
        },
        {
            "sampler" : 0,
            "source" : 2
        }
    ],
    "images" : [
        {
            "mimeType" : "image/jpeg",
            "name" : "modern_ceiling_lamp_01_gl_normal",
            "uri" : "modern_ceiling_lamp_01_gl_normal.jpg"
        },
        {
            "mimeType" : "image/jpeg",
            "name" : "modern_ceiling_lamp_01_diff_1k",
            "uri" : "modern_ceiling_lamp_01_diff_1k.jpg"
        },
        {
            "mimeType" : "image/jpeg",
            "name" : "modern_ceiling_lamp_01_metallic-modern_ceiling_lamp_01_roughness",
            "uri" : "modern_ceiling_lamp_01_metallic-modern_ceiling_lamp_01_roughness.jpg"
        }
    ],
    "accessors" : [
        {
            "bufferView" : 0,
            "componentType" : 5126,
            "count" : 399,
            "max" : [
                0.21100685000419617,
                0.5282803177833557,
                0.2112962156534195
            ],
            "min" : [
                -0.20844241976737976,
                0.22109216451644897,
                -0.20950403809547424
            ],
            "type" : "VEC3"
        },
        {
            "bufferView" : 1,
            "componentType" : 5126,
            "count" : 399,
            "type" : "VEC2"
        },
        {
            "bufferView" : 2,
            "componentType" : 5126,
            "count" : 399,
            "type" : "VEC3"
        },
        {
            "bufferView" : 3,
            "componentType" : 5123,
            "count" : 2046,
            "type" : "SCALAR"
        },
        {
            "bufferView" : 4,
            "componentType" : 5126,
            "count" : 1135,
            "max" : [
                0.14671306312084198,
                1.1726436614990234,
                0.14887076616287231
            ],
            "min" : [
                -0.1466565579175949,
                0.4579848647117615,
                -0.14174333214759827
            ],
            "type" : "VEC3"
        },
        {
            "bufferView" : 5,
            "componentType" : 5126,
            "count" : 1135,
            "type" : "VEC2"
        },
        {
            "bufferView" : 6,
            "componentType" : 5126,
            "count" : 1135,
            "type" : "VEC3"
        },
        {
            "bufferView" : 7,
            "componentType" : 5123,
            "count" : 3990,
            "type" : "SCALAR"
        },
        {
            "bufferView" : 8,
            "componentType" : 5126,
            "count" : 137,
            "max" : [
                0.03558715060353279,
                0.462555468082428,
                0.03706158325076103
            ],
            "min" : [
                -0.0355304516851902,
                0.37690940499305725,
                -0.034056030213832855
            ],
            "type" : "VEC3"
        },
        {
            "bufferView" : 9,
            "componentType" : 5126,
            "count" : 137,
            "type" : "VEC2"
        },
        {
            "bufferView" : 10,
            "componentType" : 5126,
            "count" : 137,
            "type" : "VEC3"
        },
        {
            "bufferView" : 11,
            "componentType" : 5123,
            "count" : 654,
            "type" : "SCALAR"
        }
    ],
    "bufferViews" : [
        {
            "buffer" : 0,
            "byteLength" : 4788,
            "byteOffset" : 0,
            "target" : 34962
        },
        {
            "buffer" : 0,
            "byteLength" : 3192,
            "byteOffset" : 4788,
            "target" : 34962
        },
        {
            "buffer" : 0,
            "byteLength" : 4788,
            "byteOffset" : 7980,
            "target" : 34962
        },
        {
            "buffer" : 0,
            "byteLength" : 4092,
            "byteOffset" : 12768,
            "target" : 34963
        },
        {
            "buffer" : 0,
            "byteLength" : 13620,
            "byteOffset" : 16860,
            "target" : 34962
        },
        {
            "buffer" : 0,
            "byteLength" : 9080,
            "byteOffset" : 30480,
            "target" : 34962
        },
        {
            "buffer" : 0,
            "byteLength" : 13620,
            "byteOffset" : 39560,
            "target" : 34962
        },
        {
            "buffer" : 0,
            "byteLength" : 7980,
            "byteOffset" : 53180,
            "target" : 34963
        },
        {
            "buffer" : 0,
            "byteLength" : 1644,
            "byteOffset" : 61160,
            "target" : 34962
        },
        {
            "buffer" : 0,
            "byteLength" : 1096,
            "byteOffset" : 62804,
            "target" : 34962
        },
        {
            "buffer" : 0,
            "byteLength" : 1644,
            "byteOffset" : 63900,
            "target" : 34962
        },
        {
            "buffer" : 0,
            "byteLength" : 1308,
            "byteOffset" : 65544,
            "target" : 34963
        }
    ],
    "samplers" : [
        {
            "magFilter" : 9729,
            "minFilter" : 9987
        }
    ],
    "buffers" : [
        {
            "byteLength" : 66852,
            "uri" : "model.bin"
        }
    ]
}
