{
    "asset" : {
        "generator" : "Khronos glTF Blender I/O v3.4.50",
        "version" : "2.0"
    },
    "scene" : 0,
    "scenes" : [
        {
            "name" : "blend_export",
            "nodes" : [
                0
            ]
        }
    ],
    "nodes" : [
        {
            "mesh" : 0,
            "name" : "hand_plane_no4",
            "translation" : [
                0.018503330647945404,
                0.005329778417944908,
                -0.008124117739498615
            ]
        }
    ],
    "materials" : [
        {
            "doubleSided" : true,
            "name" : "hand_plane_no4",
            "normalTexture" : {
                "index" : 0
            },
            "pbrMetallicRoughness" : {
                "baseColorTexture" : {
                    "index" : 1
                },
                "metallicRoughnessTexture" : {
                    "index" : 2
                }
            }
        }
    ],
    "meshes" : [
        {
            "name" : "Plane.007",
            "primitives" : [
                {
                    "attributes" : {
                        "POSITION" : 0,
                        "TEXCOORD_0" : 1,
                        "NORMAL" : 2
                    },
                    "indices" : 3,
                    "material" : 0
                }
            ]
        }
    ],
    "textures" : [
        {
            "sampler" : 0,
            "source" : 0
        },
        {
            "sampler" : 0,
            "source" : 1
        },
        {
            "sampler" : 0,
            "source" : 2
        }
    ],
    "images" : [
        {
            "mimeType" : "image/jpeg",
            "name" : "hand_plane_no4_nor_gl",
            "uri" : "hand_plane_no4_nor_gl.jpg"
        },
        {
            "mimeType" : "image/jpeg",
            "name" : "hand_plane_no4_diff_1k",
            "uri" : "hand_plane_no4_diff_1k.jpg"
        },
        {
            "mimeType" : "image/jpeg",
            "name" : "hand_plane_no4_metal-hand_plane_no4_rough",
            "uri" : "hand_plane_no4_metal-hand_plane_no4_rough.jpg"
        }
    ],
    "accessors" : [
        {
            "bufferView" : 0,
            "componentType" : 5126,
            "count" : 2362,
            "max" : [
                0.16716815531253815,
                0.19370946288108826,
                0.04215855896472931
            ],
            "min" : [
                -0.16362977027893066,
                -0.004093960393220186,
                -0.04215855896472931
            ],
            "type" : "VEC3"
        },
        {
            "bufferView" : 1,
            "componentType" : 5126,
            "count" : 2362,
            "type" : "VEC2"
        },
        {
            "bufferView" : 2,
            "componentType" : 5126,
            "count" : 2362,
            "type" : "VEC3"
        },
        {
            "bufferView" : 3,
            "componentType" : 5123,
            "count" : 8202,
            "type" : "SCALAR"
        }
    ],
    "bufferViews" : [
        {
            "buffer" : 0,
            "byteLength" : 28344,
            "byteOffset" : 0,
            "target" : 34962
        },
        {
            "buffer" : 0,
            "byteLength" : 18896,
            "byteOffset" : 28344,
            "target" : 34962
        },
        {
            "buffer" : 0,
            "byteLength" : 28344,
            "byteOffset" : 47240,
            "target" : 34962
        },
        {
            "buffer" : 0,
            "byteLength" : 16404,
            "byteOffset" : 75584,
            "target" : 34963
        }
    ],
    "samplers" : [
        {
            "magFilter" : 9729,
            "minFilter" : 9987
        }
    ],
    "buffers" : [
        {
            "byteLength" : 91988,
            "uri" : "model.bin"
        }
    ]
}
