{
    "asset" : {
        "generator" : "Khronos glTF Blender I/O v3.4.50",
        "version" : "2.0"
    },
    "scene" : 0,
    "scenes" : [
        {
            "name" : "Scene",
            "nodes" : [
                0
            ]
        }
    ],
    "nodes" : [
        {
            "mesh" : 0,
            "name" : "picke_dirty_01"
        }
    ],
    "materials" : [
        {
            "doubleSided" : true,
            "name" : "picke_dirty_01",
            "normalTexture" : {
                "index" : 0
            },
            "pbrMetallicRoughness" : {
                "baseColorTexture" : {
                    "index" : 1
                },
                "metallicRoughnessTexture" : {
                    "index" : 2
                }
            }
        }
    ],
    "meshes" : [
        {
            "name" : "Cylinder",
            "primitives" : [
                {
                    "attributes" : {
                        "POSITION" : 0,
                        "TEXCOORD_0" : 1,
                        "NORMAL" : 2
                    },
                    "indices" : 3,
                    "material" : 0
                }
            ]
        }
    ],
    "textures" : [
        {
            "sampler" : 0,
            "source" : 0
        },
        {
            "sampler" : 0,
            "source" : 1
        },
        {
            "sampler" : 0,
            "source" : 2
        }
    ],
    "images" : [
        {
            "mimeType" : "image/jpeg",
            "name" : "picke_dirty_01_nor_gl",
            "uri" : "picke_dirty_01_nor_gl.jpg"
        },
        {
            "mimeType" : "image/jpeg",
            "name" : "picke_dirty_01_diff_1k",
            "uri" : "picke_dirty_01_diff_1k.jpg"
        },
        {
            "mimeType" : "image/jpeg",
            "name" : "picke_dirty_01_metal-picke_dirty_01_rough",
            "uri" : "picke_dirty_01_metal-picke_dirty_01_rough.jpg"
        }
    ],
    "accessors" : [
        {
            "bufferView" : 0,
            "componentType" : 5126,
            "count" : 737,
            "max" : [
                0.28463637828826904,
                0.7606835961341858,
                0.046374958008527756
            ],
            "min" : [
                -0.26515573263168335,
                -0.3542347550392151,
                -0.022242723032832146
            ],
            "type" : "VEC3"
        },
        {
            "bufferView" : 1,
            "componentType" : 5126,
            "count" : 737,
            "type" : "VEC2"
        },
        {
            "bufferView" : 2,
            "componentType" : 5126,
            "count" : 737,
            "type" : "VEC3"
        },
        {
            "bufferView" : 3,
            "componentType" : 5123,
            "count" : 3174,
            "type" : "SCALAR"
        }
    ],
    "bufferViews" : [
        {
            "buffer" : 0,
            "byteLength" : 8844,
            "byteOffset" : 0,
            "target" : 34962
        },
        {
            "buffer" : 0,
            "byteLength" : 5896,
            "byteOffset" : 8844,
            "target" : 34962
        },
        {
            "buffer" : 0,
            "byteLength" : 8844,
            "byteOffset" : 14740,
            "target" : 34962
        },
        {
            "buffer" : 0,
            "byteLength" : 6348,
            "byteOffset" : 23584,
            "target" : 34963
        }
    ],
    "samplers" : [
        {
            "magFilter" : 9729,
            "minFilter" : 9987
        }
    ],
    "buffers" : [
        {
            "byteLength" : 29932,
            "uri" : "model.bin"
        }
    ]
}
