{
    "asset" : {
        "generator" : "Khronos glTF Blender I/O v3.4.50",
        "version" : "2.0"
    },
    "scene" : 0,
    "scenes" : [
        {
            "name" : "Scene",
            "nodes" : [
                0
            ]
        }
    ],
    "nodes" : [
        {
            "mesh" : 0,
            "name" : "modern_coffee_table_01"
        }
    ],
    "materials" : [
        {
            "doubleSided" : true,
            "name" : "modern_coffee_table_01",
            "normalTexture" : {
                "index" : 0
            },
            "pbrMetallicRoughness" : {
                "baseColorTexture" : {
                    "index" : 1
                },
                "metallicFactor" : 0,
                "metallicRoughnessTexture" : {
                    "index" : 2
                }
            }
        }
    ],
    "meshes" : [
        {
            "name" : "Cube.003",
            "primitives" : [
                {
                    "attributes" : {
                        "POSITION" : 0,
                        "TEXCOORD_0" : 1,
                        "NORMAL" : 2
                    },
                    "indices" : 3,
                    "material" : 0
                }
            ]
        }
    ],
    "textures" : [
        {
            "sampler" : 0,
            "source" : 0
        },
        {
            "sampler" : 0,
            "source" : 1
        },
        {
            "sampler" : 0,
            "source" : 2
        }
    ],
    "images" : [
        {
            "mimeType" : "image/jpeg",
            "name" : "modern_coffee_table_01_nor_gl",
            "uri" : "modern_coffee_table_01_nor_gl.jpg"
        },
        {
            "mimeType" : "image/jpeg",
            "name" : "modern_coffee_table_01_diff_1k",
            "uri" : "modern_coffee_table_01_diff_1k.jpg"
        },
        {
            "mimeType" : "image/jpeg",
            "name" : "modern_coffee_table_01_rough",
            "uri" : "modern_coffee_table_01_rough.jpg"
        }
    ],
    "accessors" : [
        {
            "bufferView" : 0,
            "componentType" : 5126,
            "count" : 2068,
            "max" : [
                0.600246012210846,
                0.3898848593235016,
                0.299999862909317
            ],
            "min" : [
                -0.5997540354728699,
                0.0006319284439086914,
                -0.3000001013278961
            ],
            "type" : "VEC3"
        },
        {
            "bufferView" : 1,
            "componentType" : 5126,
            "count" : 2068,
            "type" : "VEC2"
        },
        {
            "bufferView" : 2,
            "componentType" : 5126,
            "count" : 2068,
            "type" : "VEC3"
        },
        {
            "bufferView" : 3,
            "componentType" : 5123,
            "count" : 6348,
            "type" : "SCALAR"
        }
    ],
    "bufferViews" : [
        {
            "buffer" : 0,
            "byteLength" : 24816,
            "byteOffset" : 0,
            "target" : 34962
        },
        {
            "buffer" : 0,
            "byteLength" : 16544,
            "byteOffset" : 24816,
            "target" : 34962
        },
        {
            "buffer" : 0,
            "byteLength" : 24816,
            "byteOffset" : 41360,
            "target" : 34962
        },
        {
            "buffer" : 0,
            "byteLength" : 12696,
            "byteOffset" : 66176,
            "target" : 34963
        }
    ],
    "samplers" : [
        {
            "magFilter" : 9729,
            "minFilter" : 9987
        }
    ],
    "buffers" : [
        {
            "byteLength" : 78872,
            "uri" : "model.bin"
        }
    ]
}
