{
    "asset" : {
        "generator" : "Khronos glTF Blender I/O v3.4.50",
        "version" : "2.0"
    },
    "scene" : 0,
    "scenes" : [
        {
            "name" : "blend_export",
            "nodes" : [
                0
            ]
        }
    ],
    "nodes" : [
        {
            "mesh" : 0,
            "name" : "sledgehammer_01"
        }
    ],
    "materials" : [
        {
            "doubleSided" : true,
            "name" : "sledgehammer_01",
            "normalTexture" : {
                "index" : 0
            },
            "pbrMetallicRoughness" : {
                "baseColorTexture" : {
                    "index" : 1
                },
                "metallicRoughnessTexture" : {
                    "index" : 2
                }
            }
        }
    ],
    "meshes" : [
        {
            "name" : "Cube.008",
            "primitives" : [
                {
                    "attributes" : {
                        "POSITION" : 0,
                        "TEXCOORD_0" : 1,
                        "NORMAL" : 2
                    },
                    "indices" : 3,
                    "material" : 0
                }
            ]
        }
    ],
    "textures" : [
        {
            "sampler" : 0,
            "source" : 0
        },
        {
            "sampler" : 0,
            "source" : 1
        },
        {
            "sampler" : 0,
            "source" : 2
        }
    ],
    "images" : [
        {
            "mimeType" : "image/jpeg",
            "name" : "sledgehammer_01_nor_gl.png",
            "uri" : "sledgehammer_01_nor_gl_png.jpg"
        },
        {
            "mimeType" : "image/jpeg",
            "name" : "sledgehammer_01_diff_1k",
            "uri" : "sledgehammer_01_diff_1k.jpg"
        },
        {
            "mimeType" : "image/jpeg",
            "name" : "sledgehammer_01_metal.png-sledgehammer_01_rough.png",
            "uri" : "sledgehammer_01_metal_png-sledgehammer_01_rough_png.jpg"
        }
    ],
    "accessors" : [
        {
            "bufferView" : 0,
            "componentType" : 5126,
            "count" : 428,
            "max" : [
                0.10393347591161728,
                0.25905007123947144,
                0.04523872956633568
            ],
            "min" : [
                -0.10396140068769455,
                -0.7453599572181702,
                -0.04523840919137001
            ],
            "type" : "VEC3"
        },
        {
            "bufferView" : 1,
            "componentType" : 5126,
            "count" : 428,
            "type" : "VEC2"
        },
        {
            "bufferView" : 2,
            "componentType" : 5126,
            "count" : 428,
            "type" : "VEC3"
        },
        {
            "bufferView" : 3,
            "componentType" : 5123,
            "count" : 1464,
            "type" : "SCALAR"
        }
    ],
    "bufferViews" : [
        {
            "buffer" : 0,
            "byteLength" : 5136,
            "byteOffset" : 0,
            "target" : 34962
        },
        {
            "buffer" : 0,
            "byteLength" : 3424,
            "byteOffset" : 5136,
            "target" : 34962
        },
        {
            "buffer" : 0,
            "byteLength" : 5136,
            "byteOffset" : 8560,
            "target" : 34962
        },
        {
            "buffer" : 0,
            "byteLength" : 2928,
            "byteOffset" : 13696,
            "target" : 34963
        }
    ],
    "samplers" : [
        {
            "magFilter" : 9729,
            "minFilter" : 9987
        }
    ],
    "buffers" : [
        {
            "byteLength" : 16624,
            "uri" : "model.bin"
        }
    ]
}
