{
    "asset" : {
        "generator" : "Khronos glTF Blender I/O v3.4.50",
        "version" : "2.0"
    },
    "scene" : 0,
    "scenes" : [
        {
            "name" : "Scene",
            "nodes" : [
                0
            ]
        }
    ],
    "nodes" : [
        {
            "mesh" : 0,
            "name" : "lateral_sea_marker"
        }
    ],
    "materials" : [
        {
            "doubleSided" : true,
            "name" : "lateral_sea_marker",
            "normalTexture" : {
                "index" : 0
            },
            "pbrMetallicRoughness" : {
                "baseColorTexture" : {
                    "index" : 1
                },
                "metallicRoughnessTexture" : {
                    "index" : 2
                }
            }
        }
    ],
    "meshes" : [
        {
            "name" : "Cylinder.001",
            "primitives" : [
                {
                    "attributes" : {
                        "POSITION" : 0,
                        "TEXCOORD_0" : 1,
                        "NORMAL" : 2
                    },
                    "indices" : 3,
                    "material" : 0
                }
            ]
        }
    ],
    "textures" : [
        {
            "sampler" : 0,
            "source" : 0
        },
        {
            "sampler" : 0,
            "source" : 1
        },
        {
            "sampler" : 0,
            "source" : 2
        }
    ],
    "images" : [
        {
            "mimeType" : "image/jpeg",
            "name" : "lateral_sea_marker_nor_gl",
            "uri" : "lateral_sea_marker_nor_gl.jpg"
        },
        {
            "mimeType" : "image/jpeg",
            "name" : "lateral_sea_marker_diff_1k",
            "uri" : "lateral_sea_marker_diff_1k.jpg"
        },
        {
            "mimeType" : "image/jpeg",
            "name" : "lateral_sea_marker_metal-lateral_sea_marker_rough",
            "uri" : "lateral_sea_marker_metal-lateral_sea_marker_rough.jpg"
        }
    ],
    "accessors" : [
        {
            "bufferView" : 0,
            "componentType" : 5126,
            "count" : 5555,
            "max" : [
                1.5020489692687988,
                5.556872367858887,
                1.5020489692687988
            ],
            "min" : [
                -1.502049207687378,
                -1.2818344831466675,
                -1.5020490884780884
            ],
            "type" : "VEC3"
        },
        {
            "bufferView" : 1,
            "componentType" : 5126,
            "count" : 5555,
            "type" : "VEC2"
        },
        {
            "bufferView" : 2,
            "componentType" : 5126,
            "count" : 5555,
            "type" : "VEC3"
        },
        {
            "bufferView" : 3,
            "componentType" : 5123,
            "count" : 13320,
            "type" : "SCALAR"
        }
    ],
    "bufferViews" : [
        {
            "buffer" : 0,
            "byteLength" : 66660,
            "byteOffset" : 0,
            "target" : 34962
        },
        {
            "buffer" : 0,
            "byteLength" : 44440,
            "byteOffset" : 66660,
            "target" : 34962
        },
        {
            "buffer" : 0,
            "byteLength" : 66660,
            "byteOffset" : 111100,
            "target" : 34962
        },
        {
            "buffer" : 0,
            "byteLength" : 26640,
            "byteOffset" : 177760,
            "target" : 34963
        }
    ],
    "samplers" : [
        {
            "magFilter" : 9729,
            "minFilter" : 9987
        }
    ],
    "buffers" : [
        {
            "byteLength" : 204400,
            "uri" : "model.bin"
        }
    ]
}
