{
    "asset" : {
        "generator" : "Khronos glTF Blender I/O v3.4.50",
        "version" : "2.0"
    },
    "scene" : 0,
    "scenes" : [
        {
            "name" : "Scene",
            "nodes" : [
                0,
                1
            ]
        }
    ],
    "nodes" : [
        {
            "mesh" : 0,
            "name" : "wooden_bucket_01"
        },
        {
            "mesh" : 1,
            "name" : "wooden_bucket_01_handle",
            "translation" : [
                0,
                0.3211684823036194,
                0.00012092789256712422
            ]
        }
    ],
    "materials" : [
        {
            "doubleSided" : true,
            "name" : "wooden_bucket_01",
            "normalTexture" : {
                "index" : 0
            },
            "pbrMetallicRoughness" : {
                "baseColorTexture" : {
                    "index" : 1
                },
                "metallicRoughnessTexture" : {
                    "index" : 2
                }
            }
        }
    ],
    "meshes" : [
        {
            "name" : "Cylinder",
            "primitives" : [
                {
                    "attributes" : {
                        "POSITION" : 0,
                        "TEXCOORD_0" : 1,
                        "NORMAL" : 2
                    },
                    "indices" : 3,
                    "material" : 0
                }
            ]
        },
        {
            "name" : "Plane",
            "primitives" : [
                {
                    "attributes" : {
                        "POSITION" : 4,
                        "TEXCOORD_0" : 5,
                        "NORMAL" : 6
                    },
                    "indices" : 7,
                    "material" : 0
                }
            ]
        }
    ],
    "textures" : [
        {
            "sampler" : 0,
            "source" : 0
        },
        {
            "sampler" : 0,
            "source" : 1
        },
        {
            "sampler" : 0,
            "source" : 2
        }
    ],
    "images" : [
        {
            "mimeType" : "image/jpeg",
            "name" : "wooden_bucket_01_nor_gl",
            "uri" : "wooden_bucket_01_nor_gl.jpg"
        },
        {
            "mimeType" : "image/jpeg",
            "name" : "wooden_bucket_01_diff_1k",
            "uri" : "wooden_bucket_01_diff_1k.jpg"
        },
        {
            "mimeType" : "image/jpeg",
            "name" : "wooden_bucket_01_metal-wooden_bucket_01_rough",
            "uri" : "wooden_bucket_01_metal-wooden_bucket_01_rough.jpg"
        }
    ],
    "accessors" : [
        {
            "bufferView" : 0,
            "componentType" : 5126,
            "count" : 2326,
            "max" : [
                0.17368729412555695,
                0.34863045811653137,
                0.172260582447052
            ],
            "min" : [
                -0.17329274117946625,
                0.00013677775859832764,
                -0.16959956288337708
            ],
            "type" : "VEC3"
        },
        {
            "bufferView" : 1,
            "componentType" : 5126,
            "count" : 2326,
            "type" : "VEC2"
        },
        {
            "bufferView" : 2,
            "componentType" : 5126,
            "count" : 2326,
            "type" : "VEC3"
        },
        {
            "bufferView" : 3,
            "componentType" : 5123,
            "count" : 8193,
            "type" : "SCALAR"
        },
        {
            "bufferView" : 4,
            "componentType" : 5126,
            "count" : 385,
            "max" : [
                0.18252430856227875,
                0.22883063554763794,
                0.004410651046782732
            ],
            "min" : [
                -0.1844465434551239,
                -0.007601439952850342,
                -0.003766037989407778
            ],
            "type" : "VEC3"
        },
        {
            "bufferView" : 5,
            "componentType" : 5126,
            "count" : 385,
            "type" : "VEC2"
        },
        {
            "bufferView" : 6,
            "componentType" : 5126,
            "count" : 385,
            "type" : "VEC3"
        },
        {
            "bufferView" : 7,
            "componentType" : 5123,
            "count" : 1896,
            "type" : "SCALAR"
        }
    ],
    "bufferViews" : [
        {
            "buffer" : 0,
            "byteLength" : 27912,
            "byteOffset" : 0,
            "target" : 34962
        },
        {
            "buffer" : 0,
            "byteLength" : 18608,
            "byteOffset" : 27912,
            "target" : 34962
        },
        {
            "buffer" : 0,
            "byteLength" : 27912,
            "byteOffset" : 46520,
            "target" : 34962
        },
        {
            "buffer" : 0,
            "byteLength" : 16386,
            "byteOffset" : 74432,
            "target" : 34963
        },
        {
            "buffer" : 0,
            "byteLength" : 4620,
            "byteOffset" : 90820,
            "target" : 34962
        },
        {
            "buffer" : 0,
            "byteLength" : 3080,
            "byteOffset" : 95440,
            "target" : 34962
        },
        {
            "buffer" : 0,
            "byteLength" : 4620,
            "byteOffset" : 98520,
            "target" : 34962
        },
        {
            "buffer" : 0,
            "byteLength" : 3792,
            "byteOffset" : 103140,
            "target" : 34963
        }
    ],
    "samplers" : [
        {
            "magFilter" : 9729,
            "minFilter" : 9987
        }
    ],
    "buffers" : [
        {
            "byteLength" : 106932,
            "uri" : "model.bin"
        }
    ]
}
