{
    "asset" : {
        "generator" : "Khronos glTF Blender I/O v3.4.50",
        "version" : "2.0"
    },
    "scene" : 0,
    "scenes" : [
        {
            "name" : "Scene",
            "nodes" : [
                16,
                17,
                18,
                19
            ]
        }
    ],
    "nodes" : [
        {
            "name" : "def_crank",
            "rotation" : [
                1,
                0,
                -4.371138828673793e-08,
                8.514089131494984e-05
            ],
            "translation" : [
                -0.00029346428345888853,
                0.1753750443458557,
                -0.01960008591413498
            ]
        },
        {
            "name" : "def_drill_head",
            "rotation" : [
                -0.7071068286895752,
                5.14487931424501e-12,
                0.7071068286895752,
                6.0198784922249615e-05
            ],
            "scale" : [
                0.9999999403953552,
                0.9999998211860657,
                0.9999999403953552
            ],
            "translation" : [
                -1.0730148323687128e-13,
                -0.03621997684240341,
                -4.311032171244733e-06
            ]
        },
        {
            "children" : [
                1
            ],
            "name" : "def_cog2",
            "rotation" : [
                1,
                4.336808689942018e-19,
                -4.371138473402425e-08,
                8.513388456776738e-05
            ],
            "scale" : [
                1,
                0.9999997615814209,
                1
            ],
            "translation" : [
                0,
                0.2421179562807083,
                -1.3376056813285686e-05
            ]
        },
        {
            "name" : "def_cog1",
            "rotation" : [
                1,
                0,
                -4.371138828673793e-08,
                8.513384818797931e-05
            ],
            "translation" : [
                0,
                0.12571245431900024,
                -3.4660088203963824e-06
            ]
        },
        {
            "children" : [
                0,
                2,
                3
            ],
            "name" : "def_root",
            "rotation" : [
                -1,
                0,
                0,
                4.2562322050798684e-05
            ],
            "translation" : [
                0.00029346428345888853,
                0.17537671327590942,
                -0.019585154950618744
            ]
        },
        {
            "name" : "trl_crank",
            "rotation" : [
                1,
                0,
                -4.371138828673793e-08,
                8.514089131494984e-05
            ],
            "translation" : [
                -0.00029346428345888853,
                0.1753750443458557,
                -0.01960008591413498
            ]
        },
        {
            "children" : [
                5
            ],
            "name" : "ctrl__root",
            "rotation" : [
                -1,
                0,
                0,
                4.2562322050798684e-05
            ],
            "translation" : [
                0.00029346428345888853,
                0.17537671327590942,
                -0.019585154950618744
            ]
        },
        {
            "name" : "tgt_crank",
            "rotation" : [
                1,
                0,
                -4.371138828673793e-08,
                8.514089131494984e-05
            ],
            "translation" : [
                -0.00029346428345888853,
                0.1753750443458557,
                -0.01960008591413498
            ]
        },
        {
            "name" : "tgt_drill_head",
            "rotation" : [
                -0.7071068286895752,
                5.14487931424501e-12,
                0.7071068286895752,
                6.0198784922249615e-05
            ],
            "scale" : [
                0.9999999403953552,
                0.9999998211860657,
                0.9999999403953552
            ],
            "translation" : [
                -1.0730148323687128e-13,
                -0.03621997684240341,
                -4.311032171244733e-06
            ]
        },
        {
            "children" : [
                8
            ],
            "name" : "tgt_cog2",
            "rotation" : [
                1,
                4.336808689942018e-19,
                -4.371138473402425e-08,
                8.513388456776738e-05
            ],
            "scale" : [
                1,
                0.9999997615814209,
                1
            ],
            "translation" : [
                0,
                0.2421179562807083,
                -1.3376056813285686e-05
            ]
        },
        {
            "name" : "tgt_cog1",
            "rotation" : [
                1,
                0,
                -4.371138828673793e-08,
                8.513384818797931e-05
            ],
            "translation" : [
                0,
                0.12571245431900024,
                -3.4660088203963824e-06
            ]
        },
        {
            "children" : [
                7,
                9,
                10
            ],
            "name" : "tgt_root",
            "rotation" : [
                -1,
                0,
                0,
                4.2562322050798684e-05
            ],
            "translation" : [
                0.00029346428345888853,
                0.17537671327590942,
                -0.019585154950618744
            ]
        },
        {
            "mesh" : 0,
            "name" : "vintage_hand_drill_cog1",
            "skin" : 0
        },
        {
            "mesh" : 1,
            "name" : "vintage_hand_drill_cog2",
            "skin" : 0
        },
        {
            "mesh" : 2,
            "name" : "vintage_hand_drill_crank",
            "skin" : 0
        },
        {
            "mesh" : 3,
            "name" : "vintage_hand_drill_head",
            "skin" : 0
        },
        {
            "children" : [
                12,
                13,
                14,
                15
            ],
            "mesh" : 4,
            "name" : "vintage_hand_drill",
            "skin" : 0
        },
        {
            "children" : [
                4,
                6,
                11
            ],
            "name" : "rig_vintage_hand_drill",
            "translation" : [
                -0.0002934641088359058,
                -0.00037671500467695296,
                0.019585154950618744
            ]
        },
        {
            "name" : "wdg_crank"
        },
        {
            "name" : "wdg_root"
        }
    ],
    "materials" : [
        {
            "doubleSided" : true,
            "name" : "vintage_hand_drill",
            "normalTexture" : {
                "index" : 0
            },
            "pbrMetallicRoughness" : {
                "baseColorTexture" : {
                    "index" : 1
                },
                "metallicRoughnessTexture" : {
                    "index" : 2
                }
            }
        }
    ],
    "meshes" : [
        {
            "name" : "Cylinder.084",
            "primitives" : [
                {
                    "attributes" : {
                        "POSITION" : 0,
                        "TEXCOORD_0" : 1,
                        "NORMAL" : 2,
                        "JOINTS_0" : 3,
                        "WEIGHTS_0" : 4
                    },
                    "indices" : 5,
                    "material" : 0
                }
            ]
        },
        {
            "name" : "Cylinder.085",
            "primitives" : [
                {
                    "attributes" : {
                        "POSITION" : 7,
                        "TEXCOORD_0" : 8,
                        "NORMAL" : 9,
                        "JOINTS_0" : 10,
                        "WEIGHTS_0" : 11
                    },
                    "indices" : 12,
                    "material" : 0
                }
            ]
        },
        {
            "name" : "Cylinder.099",
            "primitives" : [
                {
                    "attributes" : {
                        "POSITION" : 13,
                        "TEXCOORD_0" : 14,
                        "NORMAL" : 15,
                        "JOINTS_0" : 16,
                        "WEIGHTS_0" : 17
                    },
                    "indices" : 18,
                    "material" : 0
                }
            ]
        },
        {
            "name" : "Cylinder.101",
            "primitives" : [
                {
                    "attributes" : {
                        "POSITION" : 19,
                        "TEXCOORD_0" : 20,
                        "NORMAL" : 21,
                        "JOINTS_0" : 22,
                        "WEIGHTS_0" : 23
                    },
                    "indices" : 24,
                    "material" : 0
                }
            ]
        },
        {
            "name" : "Cylinder.087",
            "primitives" : [
                {
                    "attributes" : {
                        "POSITION" : 25,
                        "TEXCOORD_0" : 26,
                        "NORMAL" : 27,
                        "JOINTS_0" : 28,
                        "WEIGHTS_0" : 29
                    },
                    "indices" : 30,
                    "material" : 0
                }
            ]
        }
    ],
    "textures" : [
        {
            "sampler" : 0,
            "source" : 0
        },
        {
            "sampler" : 0,
            "source" : 1
        },
        {
            "sampler" : 0,
            "source" : 2
        }
    ],
    "images" : [
        {
            "mimeType" : "image/jpeg",
            "name" : "vintage_hand_drill_nor_gl",
            "uri" : "vintage_hand_drill_nor_gl.jpg"
        },
        {
            "mimeType" : "image/jpeg",
            "name" : "vintage_hand_drill_diff_1k",
            "uri" : "vintage_hand_drill_diff_1k.jpg"
        },
        {
            "mimeType" : "image/jpeg",
            "name" : "vintage_hand_drill_metal-vintage_hand_drill_rough",
            "uri" : "vintage_hand_drill_metal-vintage_hand_drill_rough.jpg"
        }
    ],
    "skins" : [
        {
            "inverseBindMatrices" : 6,
            "joints" : [
                4,
                0,
                2,
                1,
                3,
                6,
                5,
                11,
                7,
                9,
                8,
                10
            ],
            "name" : "rig_vintage_hand_drill"
        }
    ],
    "accessors" : [
        {
            "bufferView" : 0,
            "componentType" : 5126,
            "count" : 676,
            "max" : [
                0.017573511227965355,
                0.07199183106422424,
                0.017566274851560593
            ],
            "min" : [
                -0.017573511227965355,
                0.049482837319374084,
                -0.017580747604370117
            ],
            "type" : "VEC3"
        },
        {
            "bufferView" : 1,
            "componentType" : 5126,
            "count" : 676,
            "type" : "VEC2"
        },
        {
            "bufferView" : 2,
            "componentType" : 5126,
            "count" : 676,
            "type" : "VEC3"
        },
        {
            "bufferView" : 3,
            "componentType" : 5121,
            "count" : 676,
            "type" : "VEC4"
        },
        {
            "bufferView" : 4,
            "componentType" : 5126,
            "count" : 676,
            "type" : "VEC4"
        },
        {
            "bufferView" : 5,
            "componentType" : 5123,
            "count" : 1434,
            "type" : "SCALAR"
        },
        {
            "bufferView" : 6,
            "componentType" : 5126,
            "count" : 12,
            "type" : "MAT4"
        },
        {
            "bufferView" : 7,
            "componentType" : 5126,
            "count" : 759,
            "max" : [
                0.018844639882445335,
                -0.04756927490234375,
                0.01883740909397602
            ],
            "min" : [
                -0.018844667822122574,
                -0.0670226663351059,
                -0.01885189674794674
            ],
            "type" : "VEC3"
        },
        {
            "bufferView" : 8,
            "componentType" : 5126,
            "count" : 759,
            "type" : "VEC2"
        },
        {
            "bufferView" : 9,
            "componentType" : 5126,
            "count" : 759,
            "type" : "VEC3"
        },
        {
            "bufferView" : 10,
            "componentType" : 5121,
            "count" : 759,
            "type" : "VEC4"
        },
        {
            "bufferView" : 11,
            "componentType" : 5126,
            "count" : 759,
            "type" : "VEC4"
        },
        {
            "bufferView" : 12,
            "componentType" : 5123,
            "count" : 1542,
            "type" : "SCALAR"
        },
        {
            "bufferView" : 13,
            "componentType" : 5126,
            "count" : 3732,
            "max" : [
                0.06165088340640068,
                0.13602322340011597,
                0.06407175958156586
            ],
            "min" : [
                -0.06223582103848457,
                -0.06232587620615959,
                0.01610502600669861
            ],
            "type" : "VEC3"
        },
        {
            "bufferView" : 14,
            "componentType" : 5126,
            "count" : 3732,
            "type" : "VEC2"
        },
        {
            "bufferView" : 15,
            "componentType" : 5126,
            "count" : 3732,
            "type" : "VEC3"
        },
        {
            "bufferView" : 16,
            "componentType" : 5121,
            "count" : 3732,
            "type" : "VEC4"
        },
        {
            "bufferView" : 17,
            "componentType" : 5126,
            "count" : 3732,
            "type" : "VEC4"
        },
        {
            "bufferView" : 18,
            "componentType" : 5123,
            "count" : 9552,
            "type" : "SCALAR"
        },
        {
            "bufferView" : 19,
            "componentType" : 5126,
            "count" : 1494,
            "max" : [
                0.015428038313984871,
                -0.10317418724298477,
                0.015428038313984871
            ],
            "min" : [
                -0.015428038313984871,
                -0.23585420846939087,
                -0.015428038313984871
            ],
            "type" : "VEC3"
        },
        {
            "bufferView" : 20,
            "componentType" : 5126,
            "count" : 1494,
            "type" : "VEC2"
        },
        {
            "bufferView" : 21,
            "componentType" : 5126,
            "count" : 1494,
            "type" : "VEC3"
        },
        {
            "bufferView" : 22,
            "componentType" : 5121,
            "count" : 1494,
            "type" : "VEC4"
        },
        {
            "bufferView" : 23,
            "componentType" : 5126,
            "count" : 1494,
            "type" : "VEC4"
        },
        {
            "bufferView" : 24,
            "componentType" : 5123,
            "count" : 4488,
            "type" : "SCALAR"
        },
        {
            "bufferView" : 25,
            "componentType" : 5126,
            "count" : 2086,
            "max" : [
                0.03376451134681702,
                0.24983015656471252,
                0.028979478403925896
            ],
            "min" : [
                -0.03376451134681702,
                -0.10344428569078445,
                -0.061049431562423706
            ],
            "type" : "VEC3"
        },
        {
            "bufferView" : 26,
            "componentType" : 5126,
            "count" : 2086,
            "type" : "VEC2"
        },
        {
            "bufferView" : 27,
            "componentType" : 5126,
            "count" : 2086,
            "type" : "VEC3"
        },
        {
            "bufferView" : 28,
            "componentType" : 5121,
            "count" : 2086,
            "type" : "VEC4"
        },
        {
            "bufferView" : 29,
            "componentType" : 5126,
            "count" : 2086,
            "type" : "VEC4"
        },
        {
            "bufferView" : 30,
            "componentType" : 5123,
            "count" : 7890,
            "type" : "SCALAR"
        }
    ],
    "bufferViews" : [
        {
            "buffer" : 0,
            "byteLength" : 8112,
            "byteOffset" : 0,
            "target" : 34962
        },
        {
            "buffer" : 0,
            "byteLength" : 5408,
            "byteOffset" : 8112,
            "target" : 34962
        },
        {
            "buffer" : 0,
            "byteLength" : 8112,
            "byteOffset" : 13520,
            "target" : 34962
        },
        {
            "buffer" : 0,
            "byteLength" : 2704,
            "byteOffset" : 21632,
            "target" : 34962
        },
        {
            "buffer" : 0,
            "byteLength" : 10816,
            "byteOffset" : 24336,
            "target" : 34962
        },
        {
            "buffer" : 0,
            "byteLength" : 2868,
            "byteOffset" : 35152,
            "target" : 34963
        },
        {
            "buffer" : 0,
            "byteLength" : 768,
            "byteOffset" : 38020
        },
        {
            "buffer" : 0,
            "byteLength" : 9108,
            "byteOffset" : 38788,
            "target" : 34962
        },
        {
            "buffer" : 0,
            "byteLength" : 6072,
            "byteOffset" : 47896,
            "target" : 34962
        },
        {
            "buffer" : 0,
            "byteLength" : 9108,
            "byteOffset" : 53968,
            "target" : 34962
        },
        {
            "buffer" : 0,
            "byteLength" : 3036,
            "byteOffset" : 63076,
            "target" : 34962
        },
        {
            "buffer" : 0,
            "byteLength" : 12144,
            "byteOffset" : 66112,
            "target" : 34962
        },
        {
            "buffer" : 0,
            "byteLength" : 3084,
            "byteOffset" : 78256,
            "target" : 34963
        },
        {
            "buffer" : 0,
            "byteLength" : 44784,
            "byteOffset" : 81340,
            "target" : 34962
        },
        {
            "buffer" : 0,
            "byteLength" : 29856,
            "byteOffset" : 126124,
            "target" : 34962
        },
        {
            "buffer" : 0,
            "byteLength" : 44784,
            "byteOffset" : 155980,
            "target" : 34962
        },
        {
            "buffer" : 0,
            "byteLength" : 14928,
            "byteOffset" : 200764,
            "target" : 34962
        },
        {
            "buffer" : 0,
            "byteLength" : 59712,
            "byteOffset" : 215692,
            "target" : 34962
        },
        {
            "buffer" : 0,
            "byteLength" : 19104,
            "byteOffset" : 275404,
            "target" : 34963
        },
        {
            "buffer" : 0,
            "byteLength" : 17928,
            "byteOffset" : 294508,
            "target" : 34962
        },
        {
            "buffer" : 0,
            "byteLength" : 11952,
            "byteOffset" : 312436,
            "target" : 34962
        },
        {
            "buffer" : 0,
            "byteLength" : 17928,
            "byteOffset" : 324388,
            "target" : 34962
        },
        {
            "buffer" : 0,
            "byteLength" : 5976,
            "byteOffset" : 342316,
            "target" : 34962
        },
        {
            "buffer" : 0,
            "byteLength" : 23904,
            "byteOffset" : 348292,
            "target" : 34962
        },
        {
            "buffer" : 0,
            "byteLength" : 8976,
            "byteOffset" : 372196,
            "target" : 34963
        },
        {
            "buffer" : 0,
            "byteLength" : 25032,
            "byteOffset" : 381172,
            "target" : 34962
        },
        {
            "buffer" : 0,
            "byteLength" : 16688,
            "byteOffset" : 406204,
            "target" : 34962
        },
        {
            "buffer" : 0,
            "byteLength" : 25032,
            "byteOffset" : 422892,
            "target" : 34962
        },
        {
            "buffer" : 0,
            "byteLength" : 8344,
            "byteOffset" : 447924,
            "target" : 34962
        },
        {
            "buffer" : 0,
            "byteLength" : 33376,
            "byteOffset" : 456268,
            "target" : 34962
        },
        {
            "buffer" : 0,
            "byteLength" : 15780,
            "byteOffset" : 489644,
            "target" : 34963
        }
    ],
    "samplers" : [
        {
            "magFilter" : 9729,
            "minFilter" : 9987
        }
    ],
    "buffers" : [
        {
            "byteLength" : 505424,
            "uri" : "model.bin"
        }
    ]
}
