{
    "asset" : {
        "generator" : "Khronos glTF Blender I/O v3.4.50",
        "version" : "2.0"
    },
    "scene" : 0,
    "scenes" : [
        {
            "name" : "Scene",
            "nodes" : [
                0
            ]
        }
    ],
    "nodes" : [
        {
            "mesh" : 0,
            "name" : "spinning_wheel_01"
        }
    ],
    "materials" : [
        {
            "doubleSided" : true,
            "name" : "spinning_wheel_01",
            "normalTexture" : {
                "index" : 0
            },
            "pbrMetallicRoughness" : {
                "baseColorTexture" : {
                    "index" : 1
                },
                "metallicRoughnessTexture" : {
                    "index" : 2
                }
            }
        }
    ],
    "meshes" : [
        {
            "name" : "BezierCurve.020",
            "primitives" : [
                {
                    "attributes" : {
                        "POSITION" : 0,
                        "TEXCOORD_0" : 1,
                        "NORMAL" : 2
                    },
                    "indices" : 3,
                    "material" : 0
                }
            ]
        }
    ],
    "textures" : [
        {
            "sampler" : 0,
            "source" : 0
        },
        {
            "sampler" : 0,
            "source" : 1
        },
        {
            "sampler" : 0,
            "source" : 2
        }
    ],
    "images" : [
        {
            "mimeType" : "image/jpeg",
            "name" : "spinning_wheel_01_nor_gl",
            "uri" : "spinning_wheel_01_nor_gl.jpg"
        },
        {
            "mimeType" : "image/jpeg",
            "name" : "spinning_wheel_01_diff_1k",
            "uri" : "spinning_wheel_01_diff_1k.jpg"
        },
        {
            "mimeType" : "image/jpeg",
            "name" : "spinning_wheel_01_metal-spinning_wheel_01_rough",
            "uri" : "spinning_wheel_01_metal-spinning_wheel_01_rough.jpg"
        }
    ],
    "accessors" : [
        {
            "bufferView" : 0,
            "componentType" : 5126,
            "count" : 15882,
            "max" : [
                0.269286572933197,
                0.9663301706314087,
                0.550261378288269
            ],
            "min" : [
                -0.22011323273181915,
                0.00010898223263211548,
                -0.4745956361293793
            ],
            "type" : "VEC3"
        },
        {
            "bufferView" : 1,
            "componentType" : 5126,
            "count" : 15882,
            "type" : "VEC2"
        },
        {
            "bufferView" : 2,
            "componentType" : 5126,
            "count" : 15882,
            "type" : "VEC3"
        },
        {
            "bufferView" : 3,
            "componentType" : 5123,
            "count" : 57285,
            "type" : "SCALAR"
        }
    ],
    "bufferViews" : [
        {
            "buffer" : 0,
            "byteLength" : 190584,
            "byteOffset" : 0,
            "target" : 34962
        },
        {
            "buffer" : 0,
            "byteLength" : 127056,
            "byteOffset" : 190584,
            "target" : 34962
        },
        {
            "buffer" : 0,
            "byteLength" : 190584,
            "byteOffset" : 317640,
            "target" : 34962
        },
        {
            "buffer" : 0,
            "byteLength" : 114570,
            "byteOffset" : 508224,
            "target" : 34963
        }
    ],
    "samplers" : [
        {
            "magFilter" : 9729,
            "minFilter" : 9987
        }
    ],
    "buffers" : [
        {
            "byteLength" : 622796,
            "uri" : "model.bin"
        }
    ]
}
