{
    "asset" : {
        "generator" : "Khronos glTF Blender I/O v3.4.50",
        "version" : "2.0"
    },
    "scene" : 0,
    "scenes" : [
        {
            "name" : "Scene",
            "nodes" : [
                0
            ]
        }
    ],
    "nodes" : [
        {
            "mesh" : 0,
            "name" : "korean_public_payphone_01",
            "scale" : [
                0.009999999776482582,
                0.009999999776482582,
                0.009999999776482582
            ]
        }
    ],
    "materials" : [
        {
            "doubleSided" : true,
            "name" : "korean_public_payphone_01",
            "normalTexture" : {
                "index" : 0
            },
            "pbrMetallicRoughness" : {
                "baseColorTexture" : {
                    "index" : 1
                },
                "metallicRoughnessTexture" : {
                    "index" : 2
                }
            }
        }
    ],
    "meshes" : [
        {
            "name" : "\uba54\uc26c",
            "primitives" : [
                {
                    "attributes" : {
                        "POSITION" : 0,
                        "TEXCOORD_0" : 1,
                        "NORMAL" : 2
                    },
                    "indices" : 3,
                    "material" : 0
                }
            ]
        }
    ],
    "textures" : [
        {
            "sampler" : 0,
            "source" : 0
        },
        {
            "sampler" : 0,
            "source" : 1
        },
        {
            "sampler" : 0,
            "source" : 2
        }
    ],
    "images" : [
        {
            "mimeType" : "image/jpeg",
            "name" : "korean_public_payphone_01_nor_gl",
            "uri" : "korean_public_payphone_01_nor_gl.jpg"
        },
        {
            "mimeType" : "image/jpeg",
            "name" : "korean_public_payphone_01_diff_1k",
            "uri" : "korean_public_payphone_01_diff_1k.jpg"
        },
        {
            "mimeType" : "image/jpeg",
            "name" : "korean_public_payphone_01_metal-korean_public_payphone_01_rough",
            "uri" : "korean_public_payphone_01_metal-korean_public_payphone_01_rough.jpg"
        }
    ],
    "accessors" : [
        {
            "bufferView" : 0,
            "componentType" : 5126,
            "count" : 17100,
            "max" : [
                14.433147430419922,
                73.77959442138672,
                19.318115234375
            ],
            "min" : [
                -25.604341506958008,
                -0.19367599487304688,
                -10.740947723388672
            ],
            "type" : "VEC3"
        },
        {
            "bufferView" : 1,
            "componentType" : 5126,
            "count" : 17100,
            "type" : "VEC2"
        },
        {
            "bufferView" : 2,
            "componentType" : 5126,
            "count" : 17100,
            "type" : "VEC3"
        },
        {
            "bufferView" : 3,
            "componentType" : 5123,
            "count" : 31974,
            "type" : "SCALAR"
        }
    ],
    "bufferViews" : [
        {
            "buffer" : 0,
            "byteLength" : 205200,
            "byteOffset" : 0,
            "target" : 34962
        },
        {
            "buffer" : 0,
            "byteLength" : 136800,
            "byteOffset" : 205200,
            "target" : 34962
        },
        {
            "buffer" : 0,
            "byteLength" : 205200,
            "byteOffset" : 342000,
            "target" : 34962
        },
        {
            "buffer" : 0,
            "byteLength" : 63948,
            "byteOffset" : 547200,
            "target" : 34963
        }
    ],
    "samplers" : [
        {
            "magFilter" : 9729,
            "minFilter" : 9987
        }
    ],
    "buffers" : [
        {
            "byteLength" : 611148,
            "uri" : "model.bin"
        }
    ]
}
