{
    "asset" : {
        "generator" : "Khronos glTF Blender I/O v3.4.50",
        "version" : "2.0"
    },
    "scene" : 0,
    "scenes" : [
        {
            "name" : "Scene",
            "nodes" : [
                0
            ]
        }
    ],
    "nodes" : [
        {
            "mesh" : 0,
            "name" : "food_pomegranate_01"
        }
    ],
    "materials" : [
        {
            "doubleSided" : true,
            "name" : "food_pomegranate_01",
            "normalTexture" : {
                "index" : 0
            },
            "pbrMetallicRoughness" : {
                "baseColorTexture" : {
                    "index" : 1
                },
                "metallicFactor" : 0,
                "metallicRoughnessTexture" : {
                    "index" : 2
                }
            }
        }
    ],
    "meshes" : [
        {
            "name" : "pomegranate_50k_uv.001",
            "primitives" : [
                {
                    "attributes" : {
                        "POSITION" : 0,
                        "TEXCOORD_0" : 1,
                        "NORMAL" : 2
                    },
                    "indices" : 3,
                    "material" : 0
                }
            ]
        }
    ],
    "textures" : [
        {
            "sampler" : 0,
            "source" : 0
        },
        {
            "sampler" : 0,
            "source" : 1
        },
        {
            "sampler" : 0,
            "source" : 2
        }
    ],
    "images" : [
        {
            "mimeType" : "image/jpeg",
            "name" : "food_pomegranate_01_nor_gl",
            "uri" : "food_pomegranate_01_nor_gl.jpg"
        },
        {
            "mimeType" : "image/jpeg",
            "name" : "food_pomegranate_01_diff_1k",
            "uri" : "food_pomegranate_01_diff_1k.jpg"
        },
        {
            "mimeType" : "image/jpeg",
            "name" : "food_pomegranate_01_rough_1k",
            "uri" : "food_pomegranate_01_rough_1k.jpg"
        }
    ],
    "accessors" : [
        {
            "bufferView" : 0,
            "componentType" : 5126,
            "count" : 1812,
            "max" : [
                0.05410616844892502,
                0.11526758968830109,
                0.05738997459411621
            ],
            "min" : [
                -0.05939171835780144,
                0.00038702040910720825,
                -0.05761651322245598
            ],
            "type" : "VEC3"
        },
        {
            "bufferView" : 1,
            "componentType" : 5126,
            "count" : 1812,
            "type" : "VEC2"
        },
        {
            "bufferView" : 2,
            "componentType" : 5126,
            "count" : 1812,
            "type" : "VEC3"
        },
        {
            "bufferView" : 3,
            "componentType" : 5123,
            "count" : 8124,
            "type" : "SCALAR"
        }
    ],
    "bufferViews" : [
        {
            "buffer" : 0,
            "byteLength" : 21744,
            "byteOffset" : 0,
            "target" : 34962
        },
        {
            "buffer" : 0,
            "byteLength" : 14496,
            "byteOffset" : 21744,
            "target" : 34962
        },
        {
            "buffer" : 0,
            "byteLength" : 21744,
            "byteOffset" : 36240,
            "target" : 34962
        },
        {
            "buffer" : 0,
            "byteLength" : 16248,
            "byteOffset" : 57984,
            "target" : 34963
        }
    ],
    "samplers" : [
        {
            "magFilter" : 9729,
            "minFilter" : 9987
        }
    ],
    "buffers" : [
        {
            "byteLength" : 74232,
            "uri" : "model.bin"
        }
    ]
}
