{
    "asset" : {
        "generator" : "Khronos glTF Blender I/O v3.4.50",
        "version" : "2.0"
    },
    "scene" : 0,
    "scenes" : [
        {
            "name" : "Scene",
            "nodes" : [
                0
            ]
        }
    ],
    "nodes" : [
        {
            "mesh" : 0,
            "name" : "BarberShopChair_01"
        }
    ],
    "materials" : [
        {
            "doubleSided" : true,
            "name" : "BarberShopChair_01",
            "normalTexture" : {
                "index" : 0
            },
            "pbrMetallicRoughness" : {
                "baseColorTexture" : {
                    "index" : 1
                },
                "metallicRoughnessTexture" : {
                    "index" : 2
                }
            }
        }
    ],
    "meshes" : [
        {
            "name" : "Mesh.005",
            "primitives" : [
                {
                    "attributes" : {
                        "POSITION" : 0,
                        "TEXCOORD_0" : 1,
                        "NORMAL" : 2
                    },
                    "indices" : 3,
                    "material" : 0
                }
            ]
        }
    ],
    "textures" : [
        {
            "sampler" : 0,
            "source" : 0
        },
        {
            "sampler" : 0,
            "source" : 1
        },
        {
            "sampler" : 0,
            "source" : 2
        }
    ],
    "images" : [
        {
            "mimeType" : "image/jpeg",
            "name" : "BarberShopChair_01_nor_gl",
            "uri" : "BarberShopChair_01_nor_gl.jpg"
        },
        {
            "mimeType" : "image/jpeg",
            "name" : "BarberShopChair_01_diff_1k",
            "uri" : "BarberShopChair_01_diff_1k.jpg"
        },
        {
            "mimeType" : "image/jpeg",
            "name" : "BarberShopChair_01_metallic-BarberShopChair_01_roughness",
            "uri" : "BarberShopChair_01_metallic-BarberShopChair_01_roughness.jpg"
        }
    ],
    "accessors" : [
        {
            "bufferView" : 0,
            "componentType" : 5126,
            "count" : 4122,
            "max" : [
                0.3628672659397125,
                1.488815426826477,
                0.8857696652412415
            ],
            "min" : [
                -0.39364826679229736,
                -5.3661434407104025e-08,
                -0.4396207630634308
            ],
            "type" : "VEC3"
        },
        {
            "bufferView" : 1,
            "componentType" : 5126,
            "count" : 4122,
            "type" : "VEC2"
        },
        {
            "bufferView" : 2,
            "componentType" : 5126,
            "count" : 4122,
            "type" : "VEC3"
        },
        {
            "bufferView" : 3,
            "componentType" : 5123,
            "count" : 7860,
            "type" : "SCALAR"
        }
    ],
    "bufferViews" : [
        {
            "buffer" : 0,
            "byteLength" : 49464,
            "byteOffset" : 0,
            "target" : 34962
        },
        {
            "buffer" : 0,
            "byteLength" : 32976,
            "byteOffset" : 49464,
            "target" : 34962
        },
        {
            "buffer" : 0,
            "byteLength" : 49464,
            "byteOffset" : 82440,
            "target" : 34962
        },
        {
            "buffer" : 0,
            "byteLength" : 15720,
            "byteOffset" : 131904,
            "target" : 34963
        }
    ],
    "samplers" : [
        {
            "magFilter" : 9729,
            "minFilter" : 9987
        }
    ],
    "buffers" : [
        {
            "byteLength" : 147624,
            "uri" : "model.bin"
        }
    ]
}
