{
    "asset" : {
        "generator" : "Khronos glTF Blender I/O v3.4.50",
        "version" : "2.0"
    },
    "scene" : 0,
    "scenes" : [
        {
            "name" : "Scene",
            "nodes" : [
                0
            ]
        }
    ],
    "nodes" : [
        {
            "mesh" : 0,
            "name" : "trowel_01"
        }
    ],
    "materials" : [
        {
            "doubleSided" : true,
            "name" : "trowel_01",
            "normalTexture" : {
                "index" : 0
            },
            "pbrMetallicRoughness" : {
                "baseColorTexture" : {
                    "index" : 1
                },
                "metallicRoughnessTexture" : {
                    "index" : 2
                }
            }
        }
    ],
    "meshes" : [
        {
            "name" : "Cylinder.001",
            "primitives" : [
                {
                    "attributes" : {
                        "POSITION" : 0,
                        "TEXCOORD_0" : 1,
                        "NORMAL" : 2
                    },
                    "indices" : 3,
                    "material" : 0
                }
            ]
        }
    ],
    "textures" : [
        {
            "sampler" : 0,
            "source" : 0
        },
        {
            "sampler" : 0,
            "source" : 1
        },
        {
            "sampler" : 0,
            "source" : 2
        }
    ],
    "images" : [
        {
            "mimeType" : "image/jpeg",
            "name" : "trowel_01_nor_gl",
            "uri" : "trowel_01_nor_gl.jpg"
        },
        {
            "mimeType" : "image/jpeg",
            "name" : "trowel_01_diff_1k",
            "uri" : "trowel_01_diff_1k.jpg"
        },
        {
            "mimeType" : "image/jpeg",
            "name" : "trowel_01_metal-trowel_01_rough",
            "uri" : "trowel_01_metal-trowel_01_rough.jpg"
        }
    ],
    "accessors" : [
        {
            "bufferView" : 0,
            "componentType" : 5126,
            "count" : 604,
            "max" : [
                0.04946691915392876,
                0.05467960238456726,
                0.20694367587566376
            ],
            "min" : [
                -0.04947584122419357,
                -0.04713573306798935,
                -0.13990439474582672
            ],
            "type" : "VEC3"
        },
        {
            "bufferView" : 1,
            "componentType" : 5126,
            "count" : 604,
            "type" : "VEC2"
        },
        {
            "bufferView" : 2,
            "componentType" : 5126,
            "count" : 604,
            "type" : "VEC3"
        },
        {
            "bufferView" : 3,
            "componentType" : 5123,
            "count" : 2499,
            "type" : "SCALAR"
        }
    ],
    "bufferViews" : [
        {
            "buffer" : 0,
            "byteLength" : 7248,
            "byteOffset" : 0,
            "target" : 34962
        },
        {
            "buffer" : 0,
            "byteLength" : 4832,
            "byteOffset" : 7248,
            "target" : 34962
        },
        {
            "buffer" : 0,
            "byteLength" : 7248,
            "byteOffset" : 12080,
            "target" : 34962
        },
        {
            "buffer" : 0,
            "byteLength" : 4998,
            "byteOffset" : 19328,
            "target" : 34963
        }
    ],
    "samplers" : [
        {
            "magFilter" : 9729,
            "minFilter" : 9987
        }
    ],
    "buffers" : [
        {
            "byteLength" : 24328,
            "uri" : "model.bin"
        }
    ]
}
