{
    "asset" : {
        "generator" : "Khronos glTF Blender I/O v3.4.50",
        "version" : "2.0"
    },
    "scene" : 0,
    "scenes" : [
        {
            "name" : "Scene",
            "nodes" : [
                0
            ]
        }
    ],
    "nodes" : [
        {
            "mesh" : 0,
            "name" : "food_lychee_01"
        }
    ],
    "materials" : [
        {
            "doubleSided" : true,
            "name" : "food_lychee_01",
            "normalTexture" : {
                "index" : 0
            },
            "pbrMetallicRoughness" : {
                "baseColorTexture" : {
                    "index" : 1
                },
                "metallicFactor" : 0,
                "metallicRoughnessTexture" : {
                    "index" : 2
                }
            }
        }
    ],
    "meshes" : [
        {
            "name" : "lychee_50k_uv.001",
            "primitives" : [
                {
                    "attributes" : {
                        "POSITION" : 0,
                        "TEXCOORD_0" : 1,
                        "NORMAL" : 2
                    },
                    "indices" : 3,
                    "material" : 0
                }
            ]
        }
    ],
    "textures" : [
        {
            "sampler" : 0,
            "source" : 0
        },
        {
            "sampler" : 0,
            "source" : 1
        },
        {
            "sampler" : 0,
            "source" : 2
        }
    ],
    "images" : [
        {
            "mimeType" : "image/jpeg",
            "name" : "food_lychee_01_nor_gl",
            "uri" : "food_lychee_01_nor_gl.jpg"
        },
        {
            "mimeType" : "image/jpeg",
            "name" : "food_lychee_01_diff_1k",
            "uri" : "food_lychee_01_diff_1k.jpg"
        },
        {
            "mimeType" : "image/jpeg",
            "name" : "food_lychee_01_rough_1k",
            "uri" : "food_lychee_01_rough_1k.jpg"
        }
    ],
    "accessors" : [
        {
            "bufferView" : 0,
            "componentType" : 5126,
            "count" : 3237,
            "max" : [
                0.018796322867274284,
                0.04996885731816292,
                0.023047640919685364
            ],
            "min" : [
                -0.02207653969526291,
                -0.0006301691755652428,
                -0.01890373043715954
            ],
            "type" : "VEC3"
        },
        {
            "bufferView" : 1,
            "componentType" : 5126,
            "count" : 3237,
            "type" : "VEC2"
        },
        {
            "bufferView" : 2,
            "componentType" : 5126,
            "count" : 3237,
            "type" : "VEC3"
        },
        {
            "bufferView" : 3,
            "componentType" : 5123,
            "count" : 17829,
            "type" : "SCALAR"
        }
    ],
    "bufferViews" : [
        {
            "buffer" : 0,
            "byteLength" : 38844,
            "byteOffset" : 0,
            "target" : 34962
        },
        {
            "buffer" : 0,
            "byteLength" : 25896,
            "byteOffset" : 38844,
            "target" : 34962
        },
        {
            "buffer" : 0,
            "byteLength" : 38844,
            "byteOffset" : 64740,
            "target" : 34962
        },
        {
            "buffer" : 0,
            "byteLength" : 35658,
            "byteOffset" : 103584,
            "target" : 34963
        }
    ],
    "samplers" : [
        {
            "magFilter" : 9729,
            "minFilter" : 9987
        }
    ],
    "buffers" : [
        {
            "byteLength" : 139244,
            "uri" : "model.bin"
        }
    ]
}
