{
    "asset" : {
        "generator" : "Khronos glTF Blender I/O v3.4.50",
        "version" : "2.0"
    },
    "scene" : 0,
    "scenes" : [
        {
            "name" : "Scene",
            "nodes" : [
                0,
                1
            ]
        }
    ],
    "nodes" : [
        {
            "mesh" : 0,
            "name" : "pot_enamel_01_lid"
        },
        {
            "mesh" : 1,
            "name" : "pot_enamel_01_base"
        }
    ],
    "materials" : [
        {
            "doubleSided" : true,
            "name" : "pot_enamel_01",
            "normalTexture" : {
                "index" : 0
            },
            "pbrMetallicRoughness" : {
                "baseColorTexture" : {
                    "index" : 1
                },
                "metallicRoughnessTexture" : {
                    "index" : 2
                }
            }
        }
    ],
    "meshes" : [
        {
            "name" : "Cylinder.001",
            "primitives" : [
                {
                    "attributes" : {
                        "POSITION" : 0,
                        "TEXCOORD_0" : 1,
                        "NORMAL" : 2
                    },
                    "indices" : 3,
                    "material" : 0
                }
            ]
        },
        {
            "name" : "Cube.001",
            "primitives" : [
                {
                    "attributes" : {
                        "POSITION" : 4,
                        "TEXCOORD_0" : 5,
                        "NORMAL" : 6
                    },
                    "indices" : 7,
                    "material" : 0
                }
            ]
        }
    ],
    "textures" : [
        {
            "sampler" : 0,
            "source" : 0
        },
        {
            "sampler" : 0,
            "source" : 1
        },
        {
            "sampler" : 0,
            "source" : 2
        }
    ],
    "images" : [
        {
            "mimeType" : "image/jpeg",
            "name" : "pot_enamel_01_nor_gl",
            "uri" : "pot_enamel_01_nor_gl.jpg"
        },
        {
            "mimeType" : "image/jpeg",
            "name" : "pot_enamel_01_diff_1k",
            "uri" : "pot_enamel_01_diff_1k.jpg"
        },
        {
            "mimeType" : "image/jpeg",
            "name" : "pot_enamel_01_metal-pot_enamel_01_rough",
            "uri" : "pot_enamel_01_metal-pot_enamel_01_rough.jpg"
        }
    ],
    "accessors" : [
        {
            "bufferView" : 0,
            "componentType" : 5126,
            "count" : 338,
            "max" : [
                0.08917321264743805,
                0.17811721563339233,
                0.09023720771074295
            ],
            "min" : [
                -0.08850333839654922,
                0.12897279858589172,
                -0.09023720771074295
            ],
            "type" : "VEC3"
        },
        {
            "bufferView" : 1,
            "componentType" : 5126,
            "count" : 338,
            "type" : "VEC2"
        },
        {
            "bufferView" : 2,
            "componentType" : 5126,
            "count" : 338,
            "type" : "VEC3"
        },
        {
            "bufferView" : 3,
            "componentType" : 5123,
            "count" : 1530,
            "type" : "SCALAR"
        },
        {
            "bufferView" : 4,
            "componentType" : 5126,
            "count" : 4450,
            "max" : [
                0.13146506249904633,
                0.13169820606708527,
                0.09021023660898209
            ],
            "min" : [
                -0.13146506249904633,
                0.00014360249042510986,
                -0.09021023660898209
            ],
            "type" : "VEC3"
        },
        {
            "bufferView" : 5,
            "componentType" : 5126,
            "count" : 4450,
            "type" : "VEC2"
        },
        {
            "bufferView" : 6,
            "componentType" : 5126,
            "count" : 4450,
            "type" : "VEC3"
        },
        {
            "bufferView" : 7,
            "componentType" : 5123,
            "count" : 24264,
            "type" : "SCALAR"
        }
    ],
    "bufferViews" : [
        {
            "buffer" : 0,
            "byteLength" : 4056,
            "byteOffset" : 0,
            "target" : 34962
        },
        {
            "buffer" : 0,
            "byteLength" : 2704,
            "byteOffset" : 4056,
            "target" : 34962
        },
        {
            "buffer" : 0,
            "byteLength" : 4056,
            "byteOffset" : 6760,
            "target" : 34962
        },
        {
            "buffer" : 0,
            "byteLength" : 3060,
            "byteOffset" : 10816,
            "target" : 34963
        },
        {
            "buffer" : 0,
            "byteLength" : 53400,
            "byteOffset" : 13876,
            "target" : 34962
        },
        {
            "buffer" : 0,
            "byteLength" : 35600,
            "byteOffset" : 67276,
            "target" : 34962
        },
        {
            "buffer" : 0,
            "byteLength" : 53400,
            "byteOffset" : 102876,
            "target" : 34962
        },
        {
            "buffer" : 0,
            "byteLength" : 48528,
            "byteOffset" : 156276,
            "target" : 34963
        }
    ],
    "samplers" : [
        {
            "magFilter" : 9729,
            "minFilter" : 9987
        }
    ],
    "buffers" : [
        {
            "byteLength" : 204804,
            "uri" : "model.bin"
        }
    ]
}
