{
    "asset" : {
        "generator" : "Khronos glTF Blender I/O v3.4.50",
        "version" : "2.0"
    },
    "scene" : 0,
    "scenes" : [
        {
            "name" : "Scene",
            "nodes" : [
                0
            ]
        }
    ],
    "nodes" : [
        {
            "mesh" : 0,
            "name" : "croissant"
        }
    ],
    "materials" : [
        {
            "doubleSided" : true,
            "name" : "croissant",
            "normalTexture" : {
                "index" : 0
            },
            "pbrMetallicRoughness" : {
                "baseColorTexture" : {
                    "index" : 1
                },
                "metallicFactor" : 0,
                "metallicRoughnessTexture" : {
                    "index" : 2
                }
            }
        }
    ],
    "meshes" : [
        {
            "name" : "Croissant_croissant_10M_textured.001",
            "primitives" : [
                {
                    "attributes" : {
                        "POSITION" : 0,
                        "TEXCOORD_0" : 1,
                        "NORMAL" : 2
                    },
                    "indices" : 3,
                    "material" : 0
                }
            ]
        }
    ],
    "textures" : [
        {
            "sampler" : 0,
            "source" : 0
        },
        {
            "sampler" : 0,
            "source" : 1
        },
        {
            "sampler" : 0,
            "source" : 2
        }
    ],
    "images" : [
        {
            "mimeType" : "image/jpeg",
            "name" : "croissant_nor_gl",
            "uri" : "croissant_nor_gl.jpg"
        },
        {
            "mimeType" : "image/jpeg",
            "name" : "croissant_diff_1k",
            "uri" : "croissant_diff_1k.jpg"
        },
        {
            "mimeType" : "image/jpeg",
            "name" : "croissant_rough",
            "uri" : "croissant_rough.jpg"
        }
    ],
    "accessors" : [
        {
            "bufferView" : 0,
            "componentType" : 5126,
            "count" : 605,
            "max" : [
                0.09791653603315353,
                0.06091105192899704,
                0.04300606995820999
            ],
            "min" : [
                -0.1020834669470787,
                -0.0007506338879466057,
                -0.03214717656373978
            ],
            "type" : "VEC3"
        },
        {
            "bufferView" : 1,
            "componentType" : 5126,
            "count" : 605,
            "type" : "VEC2"
        },
        {
            "bufferView" : 2,
            "componentType" : 5126,
            "count" : 605,
            "type" : "VEC3"
        },
        {
            "bufferView" : 3,
            "componentType" : 5123,
            "count" : 3432,
            "type" : "SCALAR"
        }
    ],
    "bufferViews" : [
        {
            "buffer" : 0,
            "byteLength" : 7260,
            "byteOffset" : 0,
            "target" : 34962
        },
        {
            "buffer" : 0,
            "byteLength" : 4840,
            "byteOffset" : 7260,
            "target" : 34962
        },
        {
            "buffer" : 0,
            "byteLength" : 7260,
            "byteOffset" : 12100,
            "target" : 34962
        },
        {
            "buffer" : 0,
            "byteLength" : 6864,
            "byteOffset" : 19360,
            "target" : 34963
        }
    ],
    "samplers" : [
        {
            "magFilter" : 9729,
            "minFilter" : 9987
        }
    ],
    "buffers" : [
        {
            "byteLength" : 26224,
            "uri" : "model.bin"
        }
    ]
}
