{
    "asset" : {
        "generator" : "Khronos glTF Blender I/O v3.4.50",
        "version" : "2.0"
    },
    "scene" : 0,
    "scenes" : [
        {
            "name" : "Scene",
            "nodes" : [
                0,
                1,
                2,
                3,
                4
            ]
        }
    ],
    "nodes" : [
        {
            "mesh" : 0,
            "name" : "treasure_chest_bottom",
            "translation" : [
                0,
                0.016473479568958282,
                0
            ]
        },
        {
            "mesh" : 1,
            "name" : "treasure_chest_lid",
            "translation" : [
                0,
                0.4205016791820526,
                -0.2571077048778534
            ]
        },
        {
            "mesh" : 2,
            "name" : "treasure_chest_handle_left",
            "translation" : [
                -0.4682048559188843,
                0.29400762915611267,
                0
            ]
        },
        {
            "mesh" : 3,
            "name" : "treasure_chest_handle_right",
            "translation" : [
                0.4682046175003052,
                0.29400762915611267,
                0
            ]
        },
        {
            "mesh" : 4,
            "name" : "treasure_chest_lock",
            "translation" : [
                0,
                0.4223257601261139,
                0.25776776671409607
            ]
        }
    ],
    "materials" : [
        {
            "doubleSided" : true,
            "name" : "treasure_chest",
            "normalTexture" : {
                "index" : 0
            },
            "pbrMetallicRoughness" : {
                "baseColorTexture" : {
                    "index" : 1
                },
                "metallicRoughnessTexture" : {
                    "index" : 2
                }
            }
        }
    ],
    "meshes" : [
        {
            "name" : "Plane.020",
            "primitives" : [
                {
                    "attributes" : {
                        "POSITION" : 0,
                        "TEXCOORD_0" : 1,
                        "NORMAL" : 2
                    },
                    "indices" : 3,
                    "material" : 0
                }
            ]
        },
        {
            "name" : "Plane.002",
            "primitives" : [
                {
                    "attributes" : {
                        "POSITION" : 4,
                        "TEXCOORD_0" : 5,
                        "NORMAL" : 6
                    },
                    "indices" : 7,
                    "material" : 0
                }
            ]
        },
        {
            "name" : "Plane.005",
            "primitives" : [
                {
                    "attributes" : {
                        "POSITION" : 8,
                        "TEXCOORD_0" : 9,
                        "NORMAL" : 10
                    },
                    "indices" : 11,
                    "material" : 0
                }
            ]
        },
        {
            "name" : "Plane.006",
            "primitives" : [
                {
                    "attributes" : {
                        "POSITION" : 12,
                        "TEXCOORD_0" : 13,
                        "NORMAL" : 14
                    },
                    "indices" : 15,
                    "material" : 0
                }
            ]
        },
        {
            "name" : "Plane.007",
            "primitives" : [
                {
                    "attributes" : {
                        "POSITION" : 16,
                        "TEXCOORD_0" : 17,
                        "NORMAL" : 18
                    },
                    "indices" : 19,
                    "material" : 0
                }
            ]
        }
    ],
    "textures" : [
        {
            "sampler" : 0,
            "source" : 0
        },
        {
            "sampler" : 0,
            "source" : 1
        },
        {
            "sampler" : 0,
            "source" : 2
        }
    ],
    "images" : [
        {
            "mimeType" : "image/jpeg",
            "name" : "treasure_chest_nor_gl",
            "uri" : "treasure_chest_nor_gl.jpg"
        },
        {
            "mimeType" : "image/jpeg",
            "name" : "treasure_chest_diff_1k",
            "uri" : "treasure_chest_diff_1k.jpg"
        },
        {
            "mimeType" : "image/jpeg",
            "name" : "treasure_chest_metal-treasure_chest_rough",
            "uri" : "treasure_chest_metal-treasure_chest_rough.jpg"
        }
    ],
    "accessors" : [
        {
            "bufferView" : 0,
            "componentType" : 5126,
            "count" : 14861,
            "max" : [
                0.47951826453208923,
                0.4075026214122772,
                0.25530189275741577
            ],
            "min" : [
                -0.47951826453208923,
                -0.017591269686818123,
                -0.2603229880332947
            ],
            "type" : "VEC3"
        },
        {
            "bufferView" : 1,
            "componentType" : 5126,
            "count" : 14861,
            "type" : "VEC2"
        },
        {
            "bufferView" : 2,
            "componentType" : 5126,
            "count" : 14861,
            "type" : "VEC3"
        },
        {
            "bufferView" : 3,
            "componentType" : 5123,
            "count" : 59115,
            "type" : "SCALAR"
        },
        {
            "bufferView" : 4,
            "componentType" : 5126,
            "count" : 28837,
            "max" : [
                0.44903990626335144,
                0.1967902034521103,
                0.5191531777381897
            ],
            "min" : [
                -0.44903990626335144,
                -0.0041676475666463375,
                -0.003700249595567584
            ],
            "type" : "VEC3"
        },
        {
            "bufferView" : 5,
            "componentType" : 5126,
            "count" : 28837,
            "type" : "VEC2"
        },
        {
            "bufferView" : 6,
            "componentType" : 5126,
            "count" : 28837,
            "type" : "VEC3"
        },
        {
            "bufferView" : 7,
            "componentType" : 5123,
            "count" : 130554,
            "type" : "SCALAR"
        },
        {
            "bufferView" : 8,
            "componentType" : 5126,
            "count" : 1276,
            "max" : [
                0.008192896842956543,
                0.008065849542617798,
                0.0826151967048645
            ],
            "min" : [
                -0.008065789937973022,
                -0.07133547961711884,
                -0.0826151967048645
            ],
            "type" : "VEC3"
        },
        {
            "bufferView" : 9,
            "componentType" : 5126,
            "count" : 1276,
            "type" : "VEC2"
        },
        {
            "bufferView" : 10,
            "componentType" : 5126,
            "count" : 1276,
            "type" : "VEC3"
        },
        {
            "bufferView" : 11,
            "componentType" : 5123,
            "count" : 5232,
            "type" : "SCALAR"
        },
        {
            "bufferView" : 12,
            "componentType" : 5126,
            "count" : 1276,
            "max" : [
                0.008065789937973022,
                0.008065849542617798,
                0.0826151967048645
            ],
            "min" : [
                -0.008192658424377441,
                -0.07133547961711884,
                -0.0826151967048645
            ],
            "type" : "VEC3"
        },
        {
            "bufferView" : 13,
            "componentType" : 5126,
            "count" : 1276,
            "type" : "VEC2"
        },
        {
            "bufferView" : 14,
            "componentType" : 5126,
            "count" : 1276,
            "type" : "VEC3"
        },
        {
            "bufferView" : 15,
            "componentType" : 5123,
            "count" : 5232,
            "type" : "SCALAR"
        },
        {
            "bufferView" : 16,
            "componentType" : 5126,
            "count" : 3114,
            "max" : [
                0.051419083029031754,
                0.0038152188062667847,
                0.0038251876831054688
            ],
            "min" : [
                -0.051419083029031754,
                -0.17010371387004852,
                -0.005959689617156982
            ],
            "type" : "VEC3"
        },
        {
            "bufferView" : 17,
            "componentType" : 5126,
            "count" : 3114,
            "type" : "VEC2"
        },
        {
            "bufferView" : 18,
            "componentType" : 5126,
            "count" : 3114,
            "type" : "VEC3"
        },
        {
            "bufferView" : 19,
            "componentType" : 5123,
            "count" : 12846,
            "type" : "SCALAR"
        }
    ],
    "bufferViews" : [
        {
            "buffer" : 0,
            "byteLength" : 178332,
            "byteOffset" : 0,
            "target" : 34962
        },
        {
            "buffer" : 0,
            "byteLength" : 118888,
            "byteOffset" : 178332,
            "target" : 34962
        },
        {
            "buffer" : 0,
            "byteLength" : 178332,
            "byteOffset" : 297220,
            "target" : 34962
        },
        {
            "buffer" : 0,
            "byteLength" : 118230,
            "byteOffset" : 475552,
            "target" : 34963
        },
        {
            "buffer" : 0,
            "byteLength" : 346044,
            "byteOffset" : 593784,
            "target" : 34962
        },
        {
            "buffer" : 0,
            "byteLength" : 230696,
            "byteOffset" : 939828,
            "target" : 34962
        },
        {
            "buffer" : 0,
            "byteLength" : 346044,
            "byteOffset" : 1170524,
            "target" : 34962
        },
        {
            "buffer" : 0,
            "byteLength" : 261108,
            "byteOffset" : 1516568,
            "target" : 34963
        },
        {
            "buffer" : 0,
            "byteLength" : 15312,
            "byteOffset" : 1777676,
            "target" : 34962
        },
        {
            "buffer" : 0,
            "byteLength" : 10208,
            "byteOffset" : 1792988,
            "target" : 34962
        },
        {
            "buffer" : 0,
            "byteLength" : 15312,
            "byteOffset" : 1803196,
            "target" : 34962
        },
        {
            "buffer" : 0,
            "byteLength" : 10464,
            "byteOffset" : 1818508,
            "target" : 34963
        },
        {
            "buffer" : 0,
            "byteLength" : 15312,
            "byteOffset" : 1828972,
            "target" : 34962
        },
        {
            "buffer" : 0,
            "byteLength" : 10208,
            "byteOffset" : 1844284,
            "target" : 34962
        },
        {
            "buffer" : 0,
            "byteLength" : 15312,
            "byteOffset" : 1854492,
            "target" : 34962
        },
        {
            "buffer" : 0,
            "byteLength" : 10464,
            "byteOffset" : 1869804,
            "target" : 34963
        },
        {
            "buffer" : 0,
            "byteLength" : 37368,
            "byteOffset" : 1880268,
            "target" : 34962
        },
        {
            "buffer" : 0,
            "byteLength" : 24912,
            "byteOffset" : 1917636,
            "target" : 34962
        },
        {
            "buffer" : 0,
            "byteLength" : 37368,
            "byteOffset" : 1942548,
            "target" : 34962
        },
        {
            "buffer" : 0,
            "byteLength" : 25692,
            "byteOffset" : 1979916,
            "target" : 34963
        }
    ],
    "samplers" : [
        {
            "magFilter" : 9729,
            "minFilter" : 9987
        }
    ],
    "buffers" : [
        {
            "byteLength" : 2005608,
            "uri" : "model.bin"
        }
    ]
}
