{
    "asset" : {
        "generator" : "Khronos glTF Blender I/O v3.4.50",
        "version" : "2.0"
    },
    "scene" : 0,
    "scenes" : [
        {
            "name" : "Scene",
            "nodes" : [
                0
            ]
        }
    ],
    "nodes" : [
        {
            "mesh" : 0,
            "name" : "small_oil_can_01"
        }
    ],
    "materials" : [
        {
            "doubleSided" : true,
            "name" : "small_oil_can_01",
            "normalTexture" : {
                "index" : 0
            },
            "pbrMetallicRoughness" : {
                "baseColorTexture" : {
                    "index" : 1
                },
                "metallicRoughnessTexture" : {
                    "index" : 2
                }
            }
        }
    ],
    "meshes" : [
        {
            "name" : "Mesh.006",
            "primitives" : [
                {
                    "attributes" : {
                        "POSITION" : 0,
                        "TEXCOORD_0" : 1,
                        "NORMAL" : 2
                    },
                    "indices" : 3,
                    "material" : 0
                }
            ]
        }
    ],
    "textures" : [
        {
            "sampler" : 0,
            "source" : 0
        },
        {
            "sampler" : 0,
            "source" : 1
        },
        {
            "sampler" : 0,
            "source" : 2
        }
    ],
    "images" : [
        {
            "mimeType" : "image/jpeg",
            "name" : "small_oil_can_01_nor_gl",
            "uri" : "small_oil_can_01_nor_gl.jpg"
        },
        {
            "mimeType" : "image/jpeg",
            "name" : "small_oil_can_01_diff_1k",
            "uri" : "small_oil_can_01_diff_1k.jpg"
        },
        {
            "mimeType" : "image/jpeg",
            "name" : "small_oil_can_01_metal-small_oil_can_01_rough",
            "uri" : "small_oil_can_01_metal-small_oil_can_01_rough.jpg"
        }
    ],
    "accessors" : [
        {
            "bufferView" : 0,
            "componentType" : 5126,
            "count" : 2558,
            "max" : [
                0.17536687850952148,
                0.23667839169502258,
                0.05162009969353676
            ],
            "min" : [
                -0.0902378037571907,
                0.0002111196517944336,
                -0.05076475813984871
            ],
            "type" : "VEC3"
        },
        {
            "bufferView" : 1,
            "componentType" : 5126,
            "count" : 2558,
            "type" : "VEC2"
        },
        {
            "bufferView" : 2,
            "componentType" : 5126,
            "count" : 2558,
            "type" : "VEC3"
        },
        {
            "bufferView" : 3,
            "componentType" : 5123,
            "count" : 9888,
            "type" : "SCALAR"
        }
    ],
    "bufferViews" : [
        {
            "buffer" : 0,
            "byteLength" : 30696,
            "byteOffset" : 0,
            "target" : 34962
        },
        {
            "buffer" : 0,
            "byteLength" : 20464,
            "byteOffset" : 30696,
            "target" : 34962
        },
        {
            "buffer" : 0,
            "byteLength" : 30696,
            "byteOffset" : 51160,
            "target" : 34962
        },
        {
            "buffer" : 0,
            "byteLength" : 19776,
            "byteOffset" : 81856,
            "target" : 34963
        }
    ],
    "samplers" : [
        {
            "magFilter" : 9729,
            "minFilter" : 9987
        }
    ],
    "buffers" : [
        {
            "byteLength" : 101632,
            "uri" : "model.bin"
        }
    ]
}
