{
    "asset" : {
        "generator" : "Khronos glTF Blender I/O v3.4.50",
        "version" : "2.0"
    },
    "extensionsUsed" : [
        "KHR_materials_specular",
        "KHR_materials_ior"
    ],
    "scene" : 0,
    "scenes" : [
        {
            "name" : "Scene",
            "nodes" : [
                0,
                1
            ]
        }
    ],
    "nodes" : [
        {
            "mesh" : 0,
            "name" : "CashRegister_01_body"
        },
        {
            "mesh" : 1,
            "name" : "CashRegister_011_drawer",
            "translation" : [
                0,
                0,
                0.1835193932056427
            ]
        }
    ],
    "materials" : [
        {
            "doubleSided" : true,
            "extensions" : {
                "KHR_materials_specular" : {
                    "specularColorFactor" : [
                        2.371357614441398,
                        2.371357614441398,
                        2.371357614441398
                    ]
                },
                "KHR_materials_ior" : {
                    "ior" : 1.4500000476837158
                }
            },
            "name" : "CashRegister_01",
            "normalTexture" : {
                "index" : 0
            },
            "pbrMetallicRoughness" : {
                "baseColorTexture" : {
                    "index" : 1
                },
                "metallicRoughnessTexture" : {
                    "index" : 2
                }
            }
        },
        {
            "alphaMode" : "BLEND",
            "doubleSided" : true,
            "name" : "CashRegister_01_glass",
            "normalTexture" : {
                "index" : 3
            },
            "pbrMetallicRoughness" : {
                "baseColorTexture" : {
                    "index" : 4
                },
                "metallicRoughnessTexture" : {
                    "index" : 5
                }
            }
        }
    ],
    "meshes" : [
        {
            "name" : "Cash_register",
            "primitives" : [
                {
                    "attributes" : {
                        "POSITION" : 0,
                        "TEXCOORD_0" : 1,
                        "NORMAL" : 2
                    },
                    "indices" : 3,
                    "material" : 0
                },
                {
                    "attributes" : {
                        "POSITION" : 4,
                        "TEXCOORD_0" : 5,
                        "NORMAL" : 6
                    },
                    "indices" : 7,
                    "material" : 1
                }
            ]
        },
        {
            "name" : "Cash_register.001",
            "primitives" : [
                {
                    "attributes" : {
                        "POSITION" : 8,
                        "TEXCOORD_0" : 9,
                        "NORMAL" : 10
                    },
                    "indices" : 11,
                    "material" : 0
                }
            ]
        }
    ],
    "textures" : [
        {
            "sampler" : 0,
            "source" : 0
        },
        {
            "sampler" : 0,
            "source" : 1
        },
        {
            "sampler" : 0,
            "source" : 2
        },
        {
            "sampler" : 0,
            "source" : 3
        },
        {
            "sampler" : 0,
            "source" : 4
        },
        {
            "sampler" : 0,
            "source" : 5
        }
    ],
    "images" : [
        {
            "mimeType" : "image/jpeg",
            "name" : "CashRegister_01_nor_gl",
            "uri" : "CashRegister_01_nor_gl.jpg"
        },
        {
            "mimeType" : "image/jpeg",
            "name" : "CashRegister_01_diff_1k",
            "uri" : "CashRegister_01_diff_1k.jpg"
        },
        {
            "mimeType" : "image/jpeg",
            "name" : "CashRegister_01_metallic-CashRegister_01_roughness",
            "uri" : "CashRegister_01_metallic-CashRegister_01_roughness.jpg"
        },
        {
            "mimeType" : "image/jpeg",
            "name" : "CashRegister_01_glass_nor_gl_1k",
            "uri" : "CashRegister_01_glass_nor_gl_1k.jpg"
        },
        {
            "mimeType" : "image/png",
            "name" : "CashRegister_01_glass_diff-CashRegister_01_glass_opacity",
            "uri" : "CashRegister_01_glass_diff-CashRegister_01_glass_opacity.png"
        },
        {
            "mimeType" : "image/jpeg",
            "name" : "CashRegister_01_glass_metallic-CashRegister_01_glass_roughness",
            "uri" : "CashRegister_01_glass_metallic-CashRegister_01_glass_roughness.jpg"
        }
    ],
    "accessors" : [
        {
            "bufferView" : 0,
            "componentType" : 5126,
            "count" : 6080,
            "max" : [
                0.375308632850647,
                0.6233208179473877,
                0.2625770568847656
            ],
            "min" : [
                -0.22402532398700714,
                0.002179764211177826,
                -0.1719827950000763
            ],
            "type" : "VEC3"
        },
        {
            "bufferView" : 1,
            "componentType" : 5126,
            "count" : 6080,
            "type" : "VEC2"
        },
        {
            "bufferView" : 2,
            "componentType" : 5126,
            "count" : 6080,
            "type" : "VEC3"
        },
        {
            "bufferView" : 3,
            "componentType" : 5123,
            "count" : 19236,
            "type" : "SCALAR"
        },
        {
            "bufferView" : 4,
            "componentType" : 5126,
            "count" : 12,
            "max" : [
                0.19196026027202606,
                0.6097210049629211,
                -0.02246727980673313
            ],
            "min" : [
                -0.15305203199386597,
                0.5646552443504333,
                -0.1453566998243332
            ],
            "type" : "VEC3"
        },
        {
            "bufferView" : 5,
            "componentType" : 5126,
            "count" : 12,
            "type" : "VEC2"
        },
        {
            "bufferView" : 6,
            "componentType" : 5126,
            "count" : 12,
            "type" : "VEC3"
        },
        {
            "bufferView" : 7,
            "componentType" : 5123,
            "count" : 18,
            "type" : "SCALAR"
        },
        {
            "bufferView" : 8,
            "componentType" : 5126,
            "count" : 1271,
            "max" : [
                0.2278974950313568,
                0.12868578732013702,
                0.2671951651573181
            ],
            "min" : [
                -0.19286872446537018,
                0.021781623363494873,
                -0.060094937682151794
            ],
            "type" : "VEC3"
        },
        {
            "bufferView" : 9,
            "componentType" : 5126,
            "count" : 1271,
            "type" : "VEC2"
        },
        {
            "bufferView" : 10,
            "componentType" : 5126,
            "count" : 1271,
            "type" : "VEC3"
        },
        {
            "bufferView" : 11,
            "componentType" : 5123,
            "count" : 3000,
            "type" : "SCALAR"
        }
    ],
    "bufferViews" : [
        {
            "buffer" : 0,
            "byteLength" : 72960,
            "byteOffset" : 0,
            "target" : 34962
        },
        {
            "buffer" : 0,
            "byteLength" : 48640,
            "byteOffset" : 72960,
            "target" : 34962
        },
        {
            "buffer" : 0,
            "byteLength" : 72960,
            "byteOffset" : 121600,
            "target" : 34962
        },
        {
            "buffer" : 0,
            "byteLength" : 38472,
            "byteOffset" : 194560,
            "target" : 34963
        },
        {
            "buffer" : 0,
            "byteLength" : 144,
            "byteOffset" : 233032,
            "target" : 34962
        },
        {
            "buffer" : 0,
            "byteLength" : 96,
            "byteOffset" : 233176,
            "target" : 34962
        },
        {
            "buffer" : 0,
            "byteLength" : 144,
            "byteOffset" : 233272,
            "target" : 34962
        },
        {
            "buffer" : 0,
            "byteLength" : 36,
            "byteOffset" : 233416,
            "target" : 34963
        },
        {
            "buffer" : 0,
            "byteLength" : 15252,
            "byteOffset" : 233452,
            "target" : 34962
        },
        {
            "buffer" : 0,
            "byteLength" : 10168,
            "byteOffset" : 248704,
            "target" : 34962
        },
        {
            "buffer" : 0,
            "byteLength" : 15252,
            "byteOffset" : 258872,
            "target" : 34962
        },
        {
            "buffer" : 0,
            "byteLength" : 6000,
            "byteOffset" : 274124,
            "target" : 34963
        }
    ],
    "samplers" : [
        {
            "magFilter" : 9729,
            "minFilter" : 9987
        }
    ],
    "buffers" : [
        {
            "byteLength" : 280124,
            "uri" : "model.bin"
        }
    ]
}
