{
    "asset" : {
        "generator" : "Khronos glTF Blender I/O v3.4.50",
        "version" : "2.0"
    },
    "scene" : 0,
    "scenes" : [
        {
            "name" : "Scene",
            "nodes" : [
                0
            ]
        }
    ],
    "nodes" : [
        {
            "mesh" : 0,
            "name" : "Megaphone_01"
        }
    ],
    "materials" : [
        {
            "doubleSided" : true,
            "name" : "Megaphone_01",
            "normalTexture" : {
                "index" : 0
            },
            "pbrMetallicRoughness" : {
                "baseColorTexture" : {
                    "index" : 1
                },
                "metallicRoughnessTexture" : {
                    "index" : 2
                }
            }
        }
    ],
    "meshes" : [
        {
            "name" : "Polsen MP-25 LP",
            "primitives" : [
                {
                    "attributes" : {
                        "POSITION" : 0,
                        "TEXCOORD_0" : 1,
                        "NORMAL" : 2
                    },
                    "indices" : 3,
                    "material" : 0
                }
            ]
        }
    ],
    "textures" : [
        {
            "sampler" : 0,
            "source" : 0
        },
        {
            "sampler" : 0,
            "source" : 1
        },
        {
            "sampler" : 0,
            "source" : 2
        }
    ],
    "images" : [
        {
            "mimeType" : "image/jpeg",
            "name" : "Megaphone_01_nor_gl",
            "uri" : "Megaphone_01_nor_gl.jpg"
        },
        {
            "mimeType" : "image/jpeg",
            "name" : "Megaphone_01_diff_1k",
            "uri" : "Megaphone_01_diff_1k.jpg"
        },
        {
            "mimeType" : "image/jpeg",
            "name" : "Megaphone_01_metallic-Megaphone_01_roughness",
            "uri" : "Megaphone_01_metallic-Megaphone_01_roughness.jpg"
        }
    ],
    "accessors" : [
        {
            "bufferView" : 0,
            "componentType" : 5126,
            "count" : 8596,
            "max" : [
                0.1425524652004242,
                0.1144845262169838,
                0.11355984210968018
            ],
            "min" : [
                -0.228113055229187,
                -0.18559351563453674,
                -0.11342854052782059
            ],
            "type" : "VEC3"
        },
        {
            "bufferView" : 1,
            "componentType" : 5126,
            "count" : 8596,
            "type" : "VEC2"
        },
        {
            "bufferView" : 2,
            "componentType" : 5126,
            "count" : 8596,
            "type" : "VEC3"
        },
        {
            "bufferView" : 3,
            "componentType" : 5123,
            "count" : 38094,
            "type" : "SCALAR"
        }
    ],
    "bufferViews" : [
        {
            "buffer" : 0,
            "byteLength" : 103152,
            "byteOffset" : 0,
            "target" : 34962
        },
        {
            "buffer" : 0,
            "byteLength" : 68768,
            "byteOffset" : 103152,
            "target" : 34962
        },
        {
            "buffer" : 0,
            "byteLength" : 103152,
            "byteOffset" : 171920,
            "target" : 34962
        },
        {
            "buffer" : 0,
            "byteLength" : 76188,
            "byteOffset" : 275072,
            "target" : 34963
        }
    ],
    "samplers" : [
        {
            "magFilter" : 9729,
            "minFilter" : 9987
        }
    ],
    "buffers" : [
        {
            "byteLength" : 351260,
            "uri" : "model.bin"
        }
    ]
}
