{
    "asset" : {
        "generator" : "Khronos glTF Blender I/O v3.4.50",
        "version" : "2.0"
    },
    "scene" : 0,
    "scenes" : [
        {
            "name" : "Scene",
            "nodes" : [
                0
            ]
        }
    ],
    "nodes" : [
        {
            "mesh" : 0,
            "name" : "food_lime_01"
        }
    ],
    "materials" : [
        {
            "doubleSided" : true,
            "name" : "food_lime_01",
            "normalTexture" : {
                "index" : 0
            },
            "pbrMetallicRoughness" : {
                "baseColorTexture" : {
                    "index" : 1
                },
                "metallicFactor" : 0,
                "metallicRoughnessTexture" : {
                    "index" : 2
                }
            }
        }
    ],
    "meshes" : [
        {
            "name" : "lime_50k_uv.001",
            "primitives" : [
                {
                    "attributes" : {
                        "POSITION" : 0,
                        "TEXCOORD_0" : 1,
                        "NORMAL" : 2
                    },
                    "indices" : 3,
                    "material" : 0
                }
            ]
        }
    ],
    "textures" : [
        {
            "sampler" : 0,
            "source" : 0
        },
        {
            "sampler" : 0,
            "source" : 1
        },
        {
            "sampler" : 0,
            "source" : 2
        }
    ],
    "images" : [
        {
            "mimeType" : "image/jpeg",
            "name" : "food_lime_01_nor_gl",
            "uri" : "food_lime_01_nor_gl.jpg"
        },
        {
            "mimeType" : "image/jpeg",
            "name" : "food_lime_01_diff_1k",
            "uri" : "food_lime_01_diff_1k.jpg"
        },
        {
            "mimeType" : "image/jpeg",
            "name" : "food_lime_01_rough_1k",
            "uri" : "food_lime_01_rough_1k.jpg"
        }
    ],
    "accessors" : [
        {
            "bufferView" : 0,
            "componentType" : 5126,
            "count" : 2006,
            "max" : [
                0.029137466102838516,
                0.07557447254657745,
                0.02783535048365593
            ],
            "min" : [
                -0.03080800175666809,
                0.00013330922229215503,
                -0.0324719101190567
            ],
            "type" : "VEC3"
        },
        {
            "bufferView" : 1,
            "componentType" : 5126,
            "count" : 2006,
            "type" : "VEC2"
        },
        {
            "bufferView" : 2,
            "componentType" : 5126,
            "count" : 2006,
            "type" : "VEC3"
        },
        {
            "bufferView" : 3,
            "componentType" : 5123,
            "count" : 10284,
            "type" : "SCALAR"
        }
    ],
    "bufferViews" : [
        {
            "buffer" : 0,
            "byteLength" : 24072,
            "byteOffset" : 0,
            "target" : 34962
        },
        {
            "buffer" : 0,
            "byteLength" : 16048,
            "byteOffset" : 24072,
            "target" : 34962
        },
        {
            "buffer" : 0,
            "byteLength" : 24072,
            "byteOffset" : 40120,
            "target" : 34962
        },
        {
            "buffer" : 0,
            "byteLength" : 20568,
            "byteOffset" : 64192,
            "target" : 34963
        }
    ],
    "samplers" : [
        {
            "magFilter" : 9729,
            "minFilter" : 9987
        }
    ],
    "buffers" : [
        {
            "byteLength" : 84760,
            "uri" : "model.bin"
        }
    ]
}
