{
    "asset" : {
        "generator" : "Khronos glTF Blender I/O v3.4.50",
        "version" : "2.0"
    },
    "scene" : 0,
    "scenes" : [
        {
            "name" : "Scene",
            "nodes" : [
                0
            ]
        }
    ],
    "nodes" : [
        {
            "mesh" : 0,
            "name" : "flathead_screwdriver"
        }
    ],
    "materials" : [
        {
            "doubleSided" : true,
            "name" : "flathead_screwdriver",
            "normalTexture" : {
                "index" : 0
            },
            "pbrMetallicRoughness" : {
                "baseColorTexture" : {
                    "index" : 1
                },
                "metallicRoughnessTexture" : {
                    "index" : 2
                }
            }
        }
    ],
    "meshes" : [
        {
            "name" : "Cylinder.005",
            "primitives" : [
                {
                    "attributes" : {
                        "POSITION" : 0,
                        "TEXCOORD_0" : 1,
                        "NORMAL" : 2
                    },
                    "indices" : 3,
                    "material" : 0
                }
            ]
        }
    ],
    "textures" : [
        {
            "sampler" : 0,
            "source" : 0
        },
        {
            "sampler" : 0,
            "source" : 1
        },
        {
            "sampler" : 0,
            "source" : 2
        }
    ],
    "images" : [
        {
            "mimeType" : "image/jpeg",
            "name" : "flathead_screwdriver_nor_gl",
            "uri" : "flathead_screwdriver_nor_gl.jpg"
        },
        {
            "mimeType" : "image/jpeg",
            "name" : "flathead_screwdriver_diff_1k",
            "uri" : "flathead_screwdriver_diff_1k.jpg"
        },
        {
            "mimeType" : "image/jpeg",
            "name" : "flathead_screwdriver_metal-flathead_screwdriver_rough",
            "uri" : "flathead_screwdriver_metal-flathead_screwdriver_rough.jpg"
        }
    ],
    "accessors" : [
        {
            "bufferView" : 0,
            "componentType" : 5126,
            "count" : 566,
            "max" : [
                0.015014867298305035,
                0.21388038992881775,
                0.015014867298305035
            ],
            "min" : [
                -0.015014867298305035,
                -0.047413453459739685,
                -0.015014867298305035
            ],
            "type" : "VEC3"
        },
        {
            "bufferView" : 1,
            "componentType" : 5126,
            "count" : 566,
            "type" : "VEC2"
        },
        {
            "bufferView" : 2,
            "componentType" : 5126,
            "count" : 566,
            "type" : "VEC3"
        },
        {
            "bufferView" : 3,
            "componentType" : 5123,
            "count" : 2040,
            "type" : "SCALAR"
        }
    ],
    "bufferViews" : [
        {
            "buffer" : 0,
            "byteLength" : 6792,
            "byteOffset" : 0,
            "target" : 34962
        },
        {
            "buffer" : 0,
            "byteLength" : 4528,
            "byteOffset" : 6792,
            "target" : 34962
        },
        {
            "buffer" : 0,
            "byteLength" : 6792,
            "byteOffset" : 11320,
            "target" : 34962
        },
        {
            "buffer" : 0,
            "byteLength" : 4080,
            "byteOffset" : 18112,
            "target" : 34963
        }
    ],
    "samplers" : [
        {
            "magFilter" : 9729,
            "minFilter" : 9987
        }
    ],
    "buffers" : [
        {
            "byteLength" : 22192,
            "uri" : "model.bin"
        }
    ]
}
