{
    "asset" : {
        "generator" : "Khronos glTF Blender I/O v3.4.50",
        "version" : "2.0"
    },
    "scene" : 0,
    "scenes" : [
        {
            "name" : "Scene",
            "nodes" : [
                0
            ]
        }
    ],
    "nodes" : [
        {
            "mesh" : 0,
            "name" : "wooden_stool_01"
        }
    ],
    "materials" : [
        {
            "doubleSided" : true,
            "name" : "wooden_stool_01",
            "normalTexture" : {
                "index" : 0
            },
            "pbrMetallicRoughness" : {
                "baseColorTexture" : {
                    "index" : 1
                },
                "metallicFactor" : 0,
                "metallicRoughnessTexture" : {
                    "index" : 2
                }
            }
        }
    ],
    "meshes" : [
        {
            "name" : "Slice.003",
            "primitives" : [
                {
                    "attributes" : {
                        "POSITION" : 0,
                        "TEXCOORD_0" : 1,
                        "NORMAL" : 2
                    },
                    "indices" : 3,
                    "material" : 0
                }
            ]
        }
    ],
    "textures" : [
        {
            "sampler" : 0,
            "source" : 0
        },
        {
            "sampler" : 0,
            "source" : 1
        },
        {
            "sampler" : 0,
            "source" : 2
        }
    ],
    "images" : [
        {
            "mimeType" : "image/jpeg",
            "name" : "wooden_stool_01_nor_gl",
            "uri" : "wooden_stool_01_nor_gl.jpg"
        },
        {
            "mimeType" : "image/jpeg",
            "name" : "wooden_stool_01_diff_1k",
            "uri" : "wooden_stool_01_diff_1k.jpg"
        },
        {
            "mimeType" : "image/jpeg",
            "name" : "wooden_stool_01_rough_1k",
            "uri" : "wooden_stool_01_rough_1k.jpg"
        }
    ],
    "accessors" : [
        {
            "bufferView" : 0,
            "componentType" : 5126,
            "count" : 3171,
            "max" : [
                0.21267758309841156,
                0.4373738765716553,
                0.22118140757083893
            ],
            "min" : [
                -0.21267758309841156,
                3.680146983242594e-05,
                -0.22118140757083893
            ],
            "type" : "VEC3"
        },
        {
            "bufferView" : 1,
            "componentType" : 5126,
            "count" : 3171,
            "type" : "VEC2"
        },
        {
            "bufferView" : 2,
            "componentType" : 5126,
            "count" : 3171,
            "type" : "VEC3"
        },
        {
            "bufferView" : 3,
            "componentType" : 5123,
            "count" : 11556,
            "type" : "SCALAR"
        }
    ],
    "bufferViews" : [
        {
            "buffer" : 0,
            "byteLength" : 38052,
            "byteOffset" : 0,
            "target" : 34962
        },
        {
            "buffer" : 0,
            "byteLength" : 25368,
            "byteOffset" : 38052,
            "target" : 34962
        },
        {
            "buffer" : 0,
            "byteLength" : 38052,
            "byteOffset" : 63420,
            "target" : 34962
        },
        {
            "buffer" : 0,
            "byteLength" : 23112,
            "byteOffset" : 101472,
            "target" : 34963
        }
    ],
    "samplers" : [
        {
            "magFilter" : 9729,
            "minFilter" : 9987
        }
    ],
    "buffers" : [
        {
            "byteLength" : 124584,
            "uri" : "model.bin"
        }
    ]
}
