{
    "asset" : {
        "generator" : "Khronos glTF Blender I/O v3.4.50",
        "version" : "2.0"
    },
    "scene" : 0,
    "scenes" : [
        {
            "name" : "Scene",
            "nodes" : [
                0
            ]
        }
    ],
    "nodes" : [
        {
            "mesh" : 0,
            "name" : "Rockingchair_01"
        }
    ],
    "materials" : [
        {
            "doubleSided" : true,
            "name" : "Rockingchair_01",
            "normalTexture" : {
                "index" : 0
            },
            "pbrMetallicRoughness" : {
                "baseColorTexture" : {
                    "index" : 1
                },
                "metallicRoughnessTexture" : {
                    "index" : 2
                }
            }
        }
    ],
    "meshes" : [
        {
            "name" : "Mesh.001",
            "primitives" : [
                {
                    "attributes" : {
                        "POSITION" : 0,
                        "TEXCOORD_0" : 1,
                        "NORMAL" : 2
                    },
                    "indices" : 3,
                    "material" : 0
                }
            ]
        }
    ],
    "textures" : [
        {
            "sampler" : 0,
            "source" : 0
        },
        {
            "sampler" : 0,
            "source" : 1
        },
        {
            "sampler" : 0,
            "source" : 2
        }
    ],
    "images" : [
        {
            "mimeType" : "image/jpeg",
            "name" : "Rockingchair_01_nor_gl",
            "uri" : "Rockingchair_01_nor_gl.jpg"
        },
        {
            "mimeType" : "image/jpeg",
            "name" : "Rockingchair_01_diff_1k",
            "uri" : "Rockingchair_01_diff_1k.jpg"
        },
        {
            "mimeType" : "image/jpeg",
            "name" : "Rockingchair_01_metallic-Rockingchair_01_roughness",
            "uri" : "Rockingchair_01_metallic-Rockingchair_01_roughness.jpg"
        }
    ],
    "accessors" : [
        {
            "bufferView" : 0,
            "componentType" : 5126,
            "count" : 4890,
            "max" : [
                0.35406404733657837,
                1.0965677499771118,
                0.4790112376213074
            ],
            "min" : [
                -0.35406404733657837,
                0.10870305448770523,
                -0.35447078943252563
            ],
            "type" : "VEC3"
        },
        {
            "bufferView" : 1,
            "componentType" : 5126,
            "count" : 4890,
            "type" : "VEC2"
        },
        {
            "bufferView" : 2,
            "componentType" : 5126,
            "count" : 4890,
            "type" : "VEC3"
        },
        {
            "bufferView" : 3,
            "componentType" : 5123,
            "count" : 14154,
            "type" : "SCALAR"
        }
    ],
    "bufferViews" : [
        {
            "buffer" : 0,
            "byteLength" : 58680,
            "byteOffset" : 0,
            "target" : 34962
        },
        {
            "buffer" : 0,
            "byteLength" : 39120,
            "byteOffset" : 58680,
            "target" : 34962
        },
        {
            "buffer" : 0,
            "byteLength" : 58680,
            "byteOffset" : 97800,
            "target" : 34962
        },
        {
            "buffer" : 0,
            "byteLength" : 28308,
            "byteOffset" : 156480,
            "target" : 34963
        }
    ],
    "samplers" : [
        {
            "magFilter" : 9729,
            "minFilter" : 9987
        }
    ],
    "buffers" : [
        {
            "byteLength" : 184788,
            "uri" : "model.bin"
        }
    ]
}
