{
    "asset" : {
        "generator" : "Khronos glTF Blender I/O v3.4.50",
        "version" : "2.0"
    },
    "scene" : 0,
    "scenes" : [
        {
            "name" : "Scene",
            "nodes" : [
                0
            ]
        }
    ],
    "nodes" : [
        {
            "mesh" : 0,
            "name" : "food_avocado_01"
        }
    ],
    "materials" : [
        {
            "doubleSided" : true,
            "name" : "food_avocado_01",
            "normalTexture" : {
                "index" : 0
            },
            "pbrMetallicRoughness" : {
                "baseColorTexture" : {
                    "index" : 1
                },
                "metallicFactor" : 0,
                "metallicRoughnessTexture" : {
                    "index" : 2
                }
            }
        }
    ],
    "meshes" : [
        {
            "name" : "avocado_50k_uv.001",
            "primitives" : [
                {
                    "attributes" : {
                        "POSITION" : 0,
                        "TEXCOORD_0" : 1,
                        "NORMAL" : 2
                    },
                    "indices" : 3,
                    "material" : 0
                }
            ]
        }
    ],
    "textures" : [
        {
            "sampler" : 0,
            "source" : 0
        },
        {
            "sampler" : 0,
            "source" : 1
        },
        {
            "sampler" : 0,
            "source" : 2
        }
    ],
    "images" : [
        {
            "mimeType" : "image/jpeg",
            "name" : "food_avocado_01_nor_gl.png",
            "uri" : "food_avocado_01_nor_gl_png.jpg"
        },
        {
            "mimeType" : "image/jpeg",
            "name" : "food_avocado_01_diff_1k",
            "uri" : "food_avocado_01_diff_1k.jpg"
        },
        {
            "mimeType" : "image/jpeg",
            "name" : "food_avocado_01_rough_1k",
            "uri" : "food_avocado_01_rough_1k.jpg"
        }
    ],
    "accessors" : [
        {
            "bufferView" : 0,
            "componentType" : 5126,
            "count" : 1850,
            "max" : [
                0.04596567898988724,
                0.14350612461566925,
                0.04535455256700516
            ],
            "min" : [
                -0.04917129874229431,
                0.0002716426970437169,
                -0.04919798672199249
            ],
            "type" : "VEC3"
        },
        {
            "bufferView" : 1,
            "componentType" : 5126,
            "count" : 1850,
            "type" : "VEC2"
        },
        {
            "bufferView" : 2,
            "componentType" : 5126,
            "count" : 1850,
            "type" : "VEC3"
        },
        {
            "bufferView" : 3,
            "componentType" : 5123,
            "count" : 9501,
            "type" : "SCALAR"
        }
    ],
    "bufferViews" : [
        {
            "buffer" : 0,
            "byteLength" : 22200,
            "byteOffset" : 0,
            "target" : 34962
        },
        {
            "buffer" : 0,
            "byteLength" : 14800,
            "byteOffset" : 22200,
            "target" : 34962
        },
        {
            "buffer" : 0,
            "byteLength" : 22200,
            "byteOffset" : 37000,
            "target" : 34962
        },
        {
            "buffer" : 0,
            "byteLength" : 19002,
            "byteOffset" : 59200,
            "target" : 34963
        }
    ],
    "samplers" : [
        {
            "magFilter" : 9729,
            "minFilter" : 9987
        }
    ],
    "buffers" : [
        {
            "byteLength" : 78204,
            "uri" : "model.bin"
        }
    ]
}
