{
    "asset" : {
        "generator" : "Khronos glTF Blender I/O v3.4.50",
        "version" : "2.0"
    },
    "scene" : 0,
    "scenes" : [
        {
            "name" : "Scene",
            "nodes" : [
                0
            ]
        }
    ],
    "nodes" : [
        {
            "mesh" : 0,
            "name" : "coffee_table_round_01"
        }
    ],
    "materials" : [
        {
            "doubleSided" : true,
            "name" : "coffee_table_round_01",
            "normalTexture" : {
                "index" : 0
            },
            "pbrMetallicRoughness" : {
                "baseColorTexture" : {
                    "index" : 1
                },
                "metallicRoughnessTexture" : {
                    "index" : 2
                }
            }
        }
    ],
    "meshes" : [
        {
            "name" : "Plane.001",
            "primitives" : [
                {
                    "attributes" : {
                        "POSITION" : 0,
                        "TEXCOORD_0" : 1,
                        "NORMAL" : 2
                    },
                    "indices" : 3,
                    "material" : 0
                }
            ]
        }
    ],
    "textures" : [
        {
            "sampler" : 0,
            "source" : 0
        },
        {
            "sampler" : 0,
            "source" : 1
        },
        {
            "sampler" : 0,
            "source" : 2
        }
    ],
    "images" : [
        {
            "mimeType" : "image/jpeg",
            "name" : "coffee_table_round_01_nor_gl.png",
            "uri" : "coffee_table_round_01_nor_gl_png.jpg"
        },
        {
            "mimeType" : "image/jpeg",
            "name" : "coffee_table_round_01_diff_1k",
            "uri" : "coffee_table_round_01_diff_1k.jpg"
        },
        {
            "mimeType" : "image/jpeg",
            "name" : "coffee_table_round_01_metal.png-coffee_table_round_01_rough.png",
            "uri" : "coffee_table_round_01_metal_png-coffee_table_round_01_rough_png.jpg"
        }
    ],
    "accessors" : [
        {
            "bufferView" : 0,
            "componentType" : 5126,
            "count" : 1359,
            "max" : [
                0.6506503820419312,
                0.4885903298854828,
                0.6506507992744446
            ],
            "min" : [
                -0.6506505608558655,
                -0.0013774335384368896,
                -0.6506507992744446
            ],
            "type" : "VEC3"
        },
        {
            "bufferView" : 1,
            "componentType" : 5126,
            "count" : 1359,
            "type" : "VEC2"
        },
        {
            "bufferView" : 2,
            "componentType" : 5126,
            "count" : 1359,
            "type" : "VEC3"
        },
        {
            "bufferView" : 3,
            "componentType" : 5123,
            "count" : 3738,
            "type" : "SCALAR"
        }
    ],
    "bufferViews" : [
        {
            "buffer" : 0,
            "byteLength" : 16308,
            "byteOffset" : 0,
            "target" : 34962
        },
        {
            "buffer" : 0,
            "byteLength" : 10872,
            "byteOffset" : 16308,
            "target" : 34962
        },
        {
            "buffer" : 0,
            "byteLength" : 16308,
            "byteOffset" : 27180,
            "target" : 34962
        },
        {
            "buffer" : 0,
            "byteLength" : 7476,
            "byteOffset" : 43488,
            "target" : 34963
        }
    ],
    "samplers" : [
        {
            "magFilter" : 9729,
            "minFilter" : 9987
        }
    ],
    "buffers" : [
        {
            "byteLength" : 50964,
            "uri" : "model.bin"
        }
    ]
}
