{
    "asset" : {
        "generator" : "Khronos glTF Blender I/O v3.4.50",
        "version" : "2.0"
    },
    "scene" : 0,
    "scenes" : [
        {
            "name" : "Scene",
            "nodes" : [
                0
            ]
        }
    ],
    "nodes" : [
        {
            "mesh" : 0,
            "name" : "antique_katana_01"
        }
    ],
    "materials" : [
        {
            "doubleSided" : true,
            "name" : "antique_katana_01",
            "normalTexture" : {
                "index" : 0
            },
            "pbrMetallicRoughness" : {
                "baseColorTexture" : {
                    "index" : 1
                },
                "metallicRoughnessTexture" : {
                    "index" : 2
                }
            }
        }
    ],
    "meshes" : [
        {
            "name" : "Plane",
            "primitives" : [
                {
                    "attributes" : {
                        "POSITION" : 0,
                        "TEXCOORD_0" : 1,
                        "NORMAL" : 2
                    },
                    "indices" : 3,
                    "material" : 0
                }
            ]
        }
    ],
    "textures" : [
        {
            "sampler" : 0,
            "source" : 0
        },
        {
            "sampler" : 0,
            "source" : 1
        },
        {
            "sampler" : 0,
            "source" : 2
        }
    ],
    "images" : [
        {
            "mimeType" : "image/jpeg",
            "name" : "antique_katana_01_nor_gl",
            "uri" : "antique_katana_01_nor_gl.jpg"
        },
        {
            "mimeType" : "image/jpeg",
            "name" : "antique_katana_01_diff_1k",
            "uri" : "antique_katana_01_diff_1k.jpg"
        },
        {
            "mimeType" : "image/jpeg",
            "name" : "antique_katana_01_metal-antique_katana_01_rough",
            "uri" : "antique_katana_01_metal-antique_katana_01_rough.jpg"
        }
    ],
    "accessors" : [
        {
            "bufferView" : 0,
            "componentType" : 5126,
            "count" : 2972,
            "max" : [
                0.04668637365102768,
                0.6963200569152832,
                0.04668637365102768
            ],
            "min" : [
                -0.04668637365102768,
                -0.3065400719642639,
                -0.04668637365102768
            ],
            "type" : "VEC3"
        },
        {
            "bufferView" : 1,
            "componentType" : 5126,
            "count" : 2972,
            "type" : "VEC2"
        },
        {
            "bufferView" : 2,
            "componentType" : 5126,
            "count" : 2972,
            "type" : "VEC3"
        },
        {
            "bufferView" : 3,
            "componentType" : 5123,
            "count" : 6672,
            "type" : "SCALAR"
        }
    ],
    "bufferViews" : [
        {
            "buffer" : 0,
            "byteLength" : 35664,
            "byteOffset" : 0,
            "target" : 34962
        },
        {
            "buffer" : 0,
            "byteLength" : 23776,
            "byteOffset" : 35664,
            "target" : 34962
        },
        {
            "buffer" : 0,
            "byteLength" : 35664,
            "byteOffset" : 59440,
            "target" : 34962
        },
        {
            "buffer" : 0,
            "byteLength" : 13344,
            "byteOffset" : 95104,
            "target" : 34963
        }
    ],
    "samplers" : [
        {
            "magFilter" : 9729,
            "minFilter" : 9987
        }
    ],
    "buffers" : [
        {
            "byteLength" : 108448,
            "uri" : "model.bin"
        }
    ]
}
