{
    "asset" : {
        "generator" : "Khronos glTF Blender I/O v3.4.50",
        "version" : "2.0"
    },
    "scene" : 0,
    "scenes" : [
        {
            "name" : "blend_export",
            "nodes" : [
                0
            ]
        }
    ],
    "nodes" : [
        {
            "mesh" : 0,
            "name" : "brass_pot_02"
        }
    ],
    "materials" : [
        {
            "doubleSided" : true,
            "name" : "brass_pot_02",
            "normalTexture" : {
                "index" : 0
            },
            "pbrMetallicRoughness" : {
                "baseColorTexture" : {
                    "index" : 1
                },
                "metallicRoughnessTexture" : {
                    "index" : 2
                }
            }
        }
    ],
    "meshes" : [
        {
            "name" : "brass_pot_02",
            "primitives" : [
                {
                    "attributes" : {
                        "POSITION" : 0,
                        "TEXCOORD_0" : 1,
                        "NORMAL" : 2
                    },
                    "indices" : 3,
                    "material" : 0
                }
            ]
        }
    ],
    "textures" : [
        {
            "sampler" : 0,
            "source" : 0
        },
        {
            "sampler" : 0,
            "source" : 1
        },
        {
            "sampler" : 0,
            "source" : 2
        }
    ],
    "images" : [
        {
            "mimeType" : "image/jpeg",
            "name" : "brass_pot_02_nor_gl",
            "uri" : "brass_pot_02_nor_gl.jpg"
        },
        {
            "mimeType" : "image/jpeg",
            "name" : "brass_pot_02_diff_1k",
            "uri" : "brass_pot_02_diff_1k.jpg"
        },
        {
            "mimeType" : "image/jpeg",
            "name" : "brass_pot_02_metal-brass_pot_02_rough",
            "uri" : "brass_pot_02_metal-brass_pot_02_rough.jpg"
        }
    ],
    "accessors" : [
        {
            "bufferView" : 0,
            "componentType" : 5126,
            "count" : 597,
            "max" : [
                0.18276549875736237,
                0.10830795764923096,
                0.15119366347789764
            ],
            "min" : [
                -0.18276549875736237,
                0.0016975998878479004,
                -0.15109674632549286
            ],
            "type" : "VEC3"
        },
        {
            "bufferView" : 1,
            "componentType" : 5126,
            "count" : 597,
            "type" : "VEC2"
        },
        {
            "bufferView" : 2,
            "componentType" : 5126,
            "count" : 597,
            "type" : "VEC3"
        },
        {
            "bufferView" : 3,
            "componentType" : 5123,
            "count" : 2388,
            "type" : "SCALAR"
        }
    ],
    "bufferViews" : [
        {
            "buffer" : 0,
            "byteLength" : 7164,
            "byteOffset" : 0,
            "target" : 34962
        },
        {
            "buffer" : 0,
            "byteLength" : 4776,
            "byteOffset" : 7164,
            "target" : 34962
        },
        {
            "buffer" : 0,
            "byteLength" : 7164,
            "byteOffset" : 11940,
            "target" : 34962
        },
        {
            "buffer" : 0,
            "byteLength" : 4776,
            "byteOffset" : 19104,
            "target" : 34963
        }
    ],
    "samplers" : [
        {
            "magFilter" : 9729,
            "minFilter" : 9987
        }
    ],
    "buffers" : [
        {
            "byteLength" : 23880,
            "uri" : "model.bin"
        }
    ]
}
