{
    "asset" : {
        "generator" : "Khronos glTF Blender I/O v3.4.50",
        "version" : "2.0"
    },
    "scene" : 0,
    "scenes" : [
        {
            "name" : "Scene",
            "nodes" : [
                0
            ]
        }
    ],
    "nodes" : [
        {
            "mesh" : 0,
            "name" : "brass_vase_02"
        }
    ],
    "materials" : [
        {
            "doubleSided" : true,
            "name" : "brass_vase_02",
            "normalTexture" : {
                "index" : 0
            },
            "pbrMetallicRoughness" : {
                "baseColorTexture" : {
                    "index" : 1
                },
                "metallicRoughnessTexture" : {
                    "index" : 2
                }
            }
        }
    ],
    "meshes" : [
        {
            "name" : "brass_vase_02_blockout",
            "primitives" : [
                {
                    "attributes" : {
                        "POSITION" : 0,
                        "TEXCOORD_0" : 1,
                        "NORMAL" : 2
                    },
                    "indices" : 3,
                    "material" : 0
                }
            ]
        }
    ],
    "textures" : [
        {
            "sampler" : 0,
            "source" : 0
        },
        {
            "sampler" : 0,
            "source" : 1
        },
        {
            "sampler" : 0,
            "source" : 2
        }
    ],
    "images" : [
        {
            "mimeType" : "image/jpeg",
            "name" : "brass_vase_02_nor_gl",
            "uri" : "brass_vase_02_nor_gl.jpg"
        },
        {
            "mimeType" : "image/jpeg",
            "name" : "brass_vase_02_diff_1k",
            "uri" : "brass_vase_02_diff_1k.jpg"
        },
        {
            "mimeType" : "image/jpeg",
            "name" : "brass_vase_02_metal-brass_vase_02_rough",
            "uri" : "brass_vase_02_metal-brass_vase_02_rough.jpg"
        }
    ],
    "accessors" : [
        {
            "bufferView" : 0,
            "componentType" : 5126,
            "count" : 942,
            "max" : [
                0.10475621372461319,
                0.5290313959121704,
                0.1042146235704422
            ],
            "min" : [
                -0.10457788407802582,
                0.00039029994513839483,
                -0.1042146235704422
            ],
            "type" : "VEC3"
        },
        {
            "bufferView" : 1,
            "componentType" : 5126,
            "count" : 942,
            "type" : "VEC2"
        },
        {
            "bufferView" : 2,
            "componentType" : 5126,
            "count" : 942,
            "type" : "VEC3"
        },
        {
            "bufferView" : 3,
            "componentType" : 5123,
            "count" : 4437,
            "type" : "SCALAR"
        }
    ],
    "bufferViews" : [
        {
            "buffer" : 0,
            "byteLength" : 11304,
            "byteOffset" : 0,
            "target" : 34962
        },
        {
            "buffer" : 0,
            "byteLength" : 7536,
            "byteOffset" : 11304,
            "target" : 34962
        },
        {
            "buffer" : 0,
            "byteLength" : 11304,
            "byteOffset" : 18840,
            "target" : 34962
        },
        {
            "buffer" : 0,
            "byteLength" : 8874,
            "byteOffset" : 30144,
            "target" : 34963
        }
    ],
    "samplers" : [
        {
            "magFilter" : 9729,
            "minFilter" : 9987
        }
    ],
    "buffers" : [
        {
            "byteLength" : 39020,
            "uri" : "model.bin"
        }
    ]
}
